<svg width="30" height="30" viewBox="0 0 30 30" fill="none" xmlns="http://www.w3.org/2000/svg">
<path d="M24.248 18.625C25.248 20.5 26.248 21.25 26.248 21.25H3.74805C3.74805 21.25 7.49805 18.75 7.49805 10C7.49805 5.875 10.873 2.5 14.998 2.5C15.873 2.5 16.623 2.625 17.373 2.875M12.8731 26.25C13.0823 26.6306 13.3899 26.9479 13.7637 27.169C14.1375 27.39 14.5638 27.5067 14.9981 27.5067C15.4324 27.5067 15.8587 27.39 16.2325 27.169C16.6063 26.9479 16.9139 26.6306 17.1231 26.25M26.248 10C26.248 12.0711 24.5691 13.75 22.498 13.75C20.427 13.75 18.748 12.0711 18.748 10C18.748 7.92893 20.427 6.25 22.498 6.25C24.5691 6.25 26.248 7.92893 26.248 10Z" stroke="white" stroke-width="1.35" stroke-linecap="round" stroke-linejoin="round"/>
</svg>
