<svg width="30" height="30" viewBox="0 0 30 30" fill="none" xmlns="http://www.w3.org/2000/svg">
<path d="M15 7.8V3H10.2M3 15H5.4M11.4 13.8V16.2M18.6 13.8V16.2M24.6 15H27M10.2 22.2L5.4 27V10.2C5.4 9.56348 5.65286 8.95303 6.10294 8.50294C6.55303 8.05286 7.16348 7.8 7.8 7.8H22.2C22.8365 7.8 23.447 8.05286 23.8971 8.50294C24.3471 8.95303 24.6 9.56348 24.6 10.2V19.8C24.6 20.4365 24.3471 21.047 23.8971 21.4971C23.447 21.9471 22.8365 22.2 22.2 22.2H10.2Z" stroke="white" stroke-width="1.2" stroke-linecap="round" stroke-linejoin="round"/>
</svg>
