<svg width="127" height="59" viewBox="0 0 127 59" fill="none" xmlns="http://www.w3.org/2000/svg">
<path d="M29.5913 51.8168C30.0378 52.2227 30.2639 52.7851 30.2639 53.4983C30.2639 54.2114 30.0378 54.7854 29.5913 55.1913C29.1448 55.5972 28.5128 55.8001 27.7011 55.8001H26.0254V58.1715H24.3672V51.208H27.7011C28.5128 51.208 29.1448 51.4109 29.5913 51.8168ZM28.2809 54.2462C28.4781 54.0665 28.5766 53.8172 28.5766 53.4983C28.5766 53.1794 28.478 52.9358 28.2751 52.7561C28.0722 52.5764 27.7823 52.4952 27.4054 52.4952H26.0197V54.5129H27.4054C27.7881 54.5129 28.078 54.426 28.2751 54.2462H28.2809Z" fill="#D32330"/>
<path d="M36.5417 51.4876C37.0693 51.7775 37.481 52.195 37.7767 52.74C38.0724 53.285 38.2231 53.9344 38.2231 54.6882C38.2231 55.4419 38.0724 56.0913 37.7767 56.6363C37.481 57.1814 37.0693 57.5988 36.5417 57.8887C36.0141 58.1786 35.411 58.3236 34.7269 58.3236C34.0427 58.3236 33.4513 58.1786 32.9237 57.8887C32.396 57.5988 31.9844 57.1814 31.6887 56.6363C31.393 56.0913 31.2422 55.4419 31.2422 54.6882C31.2422 53.9344 31.3872 53.285 31.6887 52.74C31.9844 52.195 32.396 51.7775 32.9237 51.4876C33.4513 51.1977 34.0485 51.0527 34.7269 51.0527C35.4052 51.0527 36.0141 51.1977 36.5417 51.4876ZM36.0372 56.4218C36.3677 56.0391 36.5359 55.4593 36.5359 54.6882C36.5359 53.917 36.3677 53.3372 36.0372 52.9545C35.7068 52.5718 35.2719 52.3805 34.7327 52.3805C34.1934 52.3805 33.7702 52.5718 33.4339 52.9545C33.1034 53.3372 32.9352 53.917 32.9352 54.6882C32.9352 55.4593 33.1034 56.0391 33.4339 56.4218C33.7644 56.8045 34.1992 56.9958 34.7327 56.9958C35.2661 56.9958 35.7068 56.8045 36.0372 56.4218Z" fill="#D32330"/>
<path d="M43.5197 53.3011H43.4791L42.5746 58.1657H40.5162L38.9102 51.2021H40.5974L41.5889 56.2523H41.6295L42.563 51.2021H44.4184L45.3519 56.2523H45.3925L46.3839 51.2021H48.1002L46.4825 58.1657H44.4474L43.5197 53.3011Z" fill="#D32330"/>
<path d="M54.3279 53.9736V55.2203H50.9766V56.8379H54.5076V58.1657H49.3125V51.2021H54.5076V52.4893H50.9766V53.9736H54.3279Z" fill="#D32330"/>
<path d="M58.8422 55.7189H57.5841V58.1657H55.9258V51.2021H59.4047C60.2164 51.2021 60.8484 51.3993 61.3064 51.7994C61.7645 52.1994 61.9906 52.7502 61.9906 53.4518C61.9906 53.9621 61.8689 54.4027 61.6253 54.7622C61.3818 55.1217 61.0281 55.3826 60.5701 55.5391L62.1704 58.1599H60.2396L58.848 55.7131L58.8422 55.7189ZM59.1437 54.4317C59.5206 54.4317 59.8105 54.3447 60.0077 54.1708C60.2048 53.9968 60.3034 53.7591 60.3034 53.4518C60.3034 53.1445 60.2048 52.9068 60.0077 52.7387C59.8105 52.5705 59.5206 52.4835 59.1437 52.4835H57.5841V54.4259H59.1437V54.4317Z" fill="#D32330"/>
<path d="M71.1378 58.1659V57.3541C70.6333 57.9977 69.9144 58.3166 68.9925 58.3166C68.3141 58.3166 67.7169 58.1717 67.1893 57.876C66.6616 57.5861 66.25 57.1628 65.9543 56.612C65.6586 56.0611 65.5078 55.4176 65.5078 54.6754C65.5078 53.9332 65.6528 53.2897 65.9543 52.7388C66.25 52.188 66.6616 51.7705 67.1893 51.4748C67.7169 51.1849 68.3141 51.0342 68.9925 51.0342C69.7984 51.0342 70.4826 51.2313 71.0508 51.6314C71.6132 52.0315 72.0075 52.5649 72.222 53.2259L70.5522 53.4288C70.413 53.0925 70.2159 52.8258 69.955 52.6403C69.694 52.4547 69.3752 52.3562 68.9867 52.3562C68.4475 52.3562 68.0126 52.5475 67.6879 52.936C67.3574 53.3244 67.1951 53.8984 67.1951 54.6638C67.1951 55.4292 67.3574 56.009 67.6879 56.3916C68.0184 56.7801 68.4475 56.9715 68.9867 56.9715C69.4157 56.9715 69.7868 56.8497 70.0941 56.6178C70.4014 56.38 70.6101 56.0496 70.7145 55.6263H69.1084V54.4261H72.2684V58.1427H71.1378V58.1659Z" fill="#D32330"/>
<path d="M76.5532 55.7189H75.295V58.1657H73.6367V51.2021H77.1156C77.9273 51.2021 78.5593 51.3993 79.0174 51.7994C79.4754 52.1994 79.7015 52.7502 79.7015 53.4518C79.7015 53.9621 79.5798 54.4027 79.3363 54.7622C79.0927 55.1217 78.7391 55.3826 78.281 55.5391L79.8813 58.1599H77.9505L76.559 55.7131L76.5532 55.7189ZM76.8547 54.4317C77.2315 54.4317 77.5214 54.3447 77.7186 54.1708C77.9157 53.9968 78.0143 53.7591 78.0143 53.4518C78.0143 53.1445 77.9157 52.9068 77.7186 52.7387C77.5214 52.5705 77.2315 52.4835 76.8547 52.4835H75.295V54.4259H76.8547V54.4317Z" fill="#D32330"/>
<path d="M86.026 51.4876C86.5537 51.7775 86.9653 52.195 87.261 52.74C87.5567 53.285 87.7075 53.9344 87.7075 54.6882C87.7075 55.4419 87.5567 56.0913 87.261 56.6363C86.9653 57.1814 86.5537 57.5988 86.026 57.8887C85.4984 58.1786 84.8954 58.3236 84.2112 58.3236C83.527 58.3236 82.9356 58.1786 82.408 57.8887C81.8804 57.5988 81.4687 57.1814 81.173 56.6363C80.8773 56.0913 80.7266 55.4419 80.7266 54.6882C80.7266 53.9344 80.8715 53.285 81.173 52.74C81.4687 52.195 81.8804 51.7775 82.408 51.4876C82.9356 51.1977 83.5328 51.0527 84.2112 51.0527C84.8896 51.0527 85.4984 51.1977 86.026 51.4876ZM85.5158 56.4218C85.8463 56.0391 86.0144 55.4593 86.0144 54.6882C86.0144 53.917 85.8463 53.3372 85.5158 52.9545C85.1853 52.5718 84.7504 52.3805 84.2112 52.3805C83.672 52.3805 83.2487 52.5718 82.9124 52.9545C82.582 53.3372 82.4138 53.917 82.4138 54.6882C82.4138 55.4593 82.582 56.0391 82.9124 56.4218C83.2429 56.8045 83.6778 56.9958 84.2112 56.9958C84.7446 56.9958 85.1853 56.8045 85.5158 56.4218Z" fill="#D32330"/>
<path d="M94.7208 57.1105C94.4599 57.5164 94.0947 57.8179 93.6366 58.0208C93.1785 58.2237 92.6509 58.3223 92.0595 58.3223C91.4681 58.3223 90.9463 58.2237 90.4824 58.0208C90.0244 57.8179 89.6649 57.5164 89.3982 57.1105C89.1315 56.7046 89.0039 56.2002 89.0039 55.603V51.208H90.6622V55.4464C90.6622 56.4727 91.126 56.9887 92.0537 56.9887C92.5176 56.9887 92.8655 56.8612 93.0974 56.6119C93.3293 56.3625 93.4453 55.9741 93.4453 55.4464V51.208H95.1035V55.603C95.1035 56.2002 94.9702 56.7046 94.7093 57.1105H94.7208Z" fill="#D32330"/>
<path d="M101.951 51.8168C102.397 52.2227 102.623 52.7851 102.623 53.4983C102.623 54.2114 102.397 54.7854 101.951 55.1913C101.504 55.5972 100.872 55.8001 100.06 55.8001H98.3848V58.1715H96.7266V51.208H100.06C100.872 51.208 101.504 51.4109 101.951 51.8168ZM100.634 54.2462C100.832 54.0665 100.93 53.8172 100.93 53.4983C100.93 53.1794 100.832 52.9358 100.629 52.7561C100.426 52.5764 100.136 52.4952 99.759 52.4952H98.3732V54.5129H99.759C100.142 54.5129 100.432 54.426 100.629 54.2462H100.634Z" fill="#D32330"/>
<path d="M22.6224 33.3682C16.2444 33.3682 11.2117 28.3528 11.3914 22.1894C11.5769 16.026 16.9112 11.0106 23.2892 11.0106H38.6716C40.3878 6.96355 43.7855 3.31653 48.5864 0H23.6196C10.9623 0 0.374977 9.94957 0.00969561 22.1836C-0.355586 34.4176 9.64618 44.3672 22.2977 44.3672H47.4847C42.852 41.1493 39.779 37.4617 38.0744 33.3566H22.6224V33.3682Z" fill="#232755"/>
<path d="M104.701 0.00488281H64.1137C51.4564 0.00488281 40.8633 9.95446 40.498 22.1885C40.1327 34.4167 50.1345 44.3721 62.7918 44.3721C75.4491 44.3721 86.0364 34.4167 86.4017 22.1885C86.4423 20.7796 86.106 18.5763 85.8335 17.0804C85.7349 16.5411 85.7059 16.3846 85.6479 16.1005C85.6364 16.0425 88.4311 15.2655 88.4311 15.2655L78.006 11.8447L72.4514 20.9419C72.9849 20.7332 75.2113 20.0664 75.2113 20.0664L75.3795 22.1943C75.1939 28.3577 69.4886 33.3731 63.1107 33.3731C56.7327 33.3731 51.7 28.3577 51.8855 22.1943C52.071 16.0309 57.4053 11.0155 63.7774 11.0155H104.37C110.748 11.0155 115.787 16.0251 115.601 22.1943C115.416 28.3577 110.081 33.3731 103.703 33.3731H88.3383C85.7697 38.2261 82.459 41.9137 78.3771 44.3837H103.379C116.03 44.3837 126.623 34.4283 126.989 22.2001C127.354 9.96605 117.358 0.0164815 104.695 0.0164815" fill="#232755"/>
</svg>
