<svg width="125" height="58" viewBox="0 0 125 58" fill="none" xmlns="http://www.w3.org/2000/svg">
<path d="M29.1295 51.5572C29.5689 51.9567 29.7915 52.5103 29.7915 53.2122C29.7915 53.9142 29.5689 54.4792 29.1295 54.8786C28.6901 55.2781 28.068 55.4779 27.269 55.4779H25.6197V57.812H23.9876V50.958H27.269C28.068 50.958 28.6901 51.1577 29.1295 51.5572ZM27.8397 53.9484C28.0338 53.7715 28.1308 53.5261 28.1308 53.2122C28.1308 52.8983 28.0338 52.6587 27.834 52.4817C27.6343 52.3048 27.3489 52.2249 26.978 52.2249H25.614V54.2109H26.978C27.3546 54.2109 27.64 54.1253 27.834 53.9484H27.8397Z" fill="white"/>
<path d="M35.973 51.2329C36.4924 51.5182 36.8976 51.9291 37.1886 52.4656C37.4797 53.002 37.628 53.6412 37.628 54.3831C37.628 55.125 37.4797 55.7642 37.1886 56.3006C36.8976 56.8371 36.4924 57.2479 35.973 57.5333C35.4537 57.8186 34.8602 57.9613 34.1868 57.9613C33.5134 57.9613 32.9313 57.8186 32.4119 57.5333C31.8926 57.2479 31.4874 56.8371 31.1964 56.3006C30.9053 55.7642 30.7569 55.125 30.7569 54.3831C30.7569 53.6412 30.8996 53.002 31.1964 52.4656C31.4874 51.9291 31.8926 51.5182 32.4119 51.2329C32.9313 50.9475 33.5191 50.8049 34.1868 50.8049C34.8545 50.8049 35.4537 50.9475 35.973 51.2329ZM35.4765 56.0894C35.8018 55.7128 35.9673 55.1421 35.9673 54.3831C35.9673 53.6241 35.8018 53.0534 35.4765 52.6767C35.1512 52.3001 34.7232 52.1117 34.1925 52.1117C33.6617 52.1117 33.2451 52.3001 32.9141 52.6767C32.5889 53.0534 32.4233 53.6241 32.4233 54.3831C32.4233 55.1421 32.5889 55.7128 32.9141 56.0894C33.2394 56.4661 33.6675 56.6544 34.1925 56.6544C34.7175 56.6544 35.1512 56.4661 35.4765 56.0894Z" fill="white"/>
<path d="M42.8356 53.0184H42.7957L41.9054 57.8064H39.8795L38.2986 50.9525H39.9594L40.9352 55.9232H40.9752L41.894 50.9525H43.7202L44.639 55.9232H44.679L45.6548 50.9525H47.3441L45.7519 57.8064H43.7487L42.8356 53.0184Z" fill="white"/>
<path d="M53.4757 53.6804V54.9073H50.1771V56.4996H53.6526V57.8064H48.5392V50.9525H53.6526V52.2194H50.1771V53.6804H53.4757Z" fill="white"/>
<path d="M57.9217 55.3981H56.6833V57.8064H55.0511V50.9525H58.4753C59.2742 50.9525 59.8963 51.1465 60.3471 51.5403C60.798 51.934 61.0206 52.4762 61.0206 53.1667C61.0206 53.6689 60.9007 54.1027 60.661 54.4565C60.4213 54.8103 60.0732 55.0671 59.6224 55.2212L61.1975 57.8007H59.2971L57.9274 55.3924L57.9217 55.3981ZM58.2185 54.1312C58.5894 54.1312 58.8748 54.0456 59.0688 53.8744C59.2628 53.7032 59.3598 53.4692 59.3598 53.1667C59.3598 52.8643 59.2628 52.6303 59.0688 52.4648C58.8748 52.2993 58.5894 52.2137 58.2185 52.2137H56.6833V54.1255H58.2185V54.1312Z" fill="white"/>
<path d="M70.0208 57.8066V57.0076C69.5243 57.6411 68.8166 57.955 67.9092 57.955C67.2415 57.955 66.6537 57.8123 66.1344 57.5212C65.6151 57.2359 65.2099 56.8193 64.9188 56.2771C64.6278 55.735 64.4794 55.1015 64.4794 54.371C64.4794 53.6406 64.6221 53.0071 64.9188 52.4649C65.2099 51.9228 65.6151 51.5119 66.1344 51.2208C66.6537 50.9355 67.2415 50.7871 67.9092 50.7871C68.7025 50.7871 69.3759 50.9811 69.9352 51.3749C70.4888 51.7687 70.8768 52.2937 71.088 52.9443L69.4444 53.1441C69.3074 52.8131 69.1134 52.5505 68.8566 52.3679C68.5998 52.1853 68.2859 52.0883 67.9035 52.0883C67.3728 52.0883 66.9448 52.2766 66.6252 52.659C66.2999 53.0413 66.1401 53.6063 66.1401 54.3596C66.1401 55.1129 66.2999 55.6836 66.6252 56.0603C66.9505 56.4426 67.3728 56.631 67.9035 56.631C68.3259 56.631 68.6911 56.5111 68.9935 56.2828C69.296 56.0489 69.5015 55.7236 69.6042 55.307H68.0234V54.1256H71.1336V57.7838H70.0208V57.8066Z" fill="white"/>
<path d="M75.3533 55.3981H74.1149V57.8064H72.4828V50.9525H75.9069C76.7059 50.9525 77.3279 51.1465 77.7788 51.5403C78.2296 51.934 78.4522 52.4762 78.4522 53.1667C78.4522 53.6689 78.3323 54.1027 78.0926 54.4565C77.853 54.8103 77.5048 55.0671 77.054 55.2212L78.6291 57.8007H76.7287L75.359 55.3924L75.3533 55.3981ZM75.6501 54.1312C76.021 54.1312 76.3064 54.0456 76.5004 53.8744C76.6945 53.7032 76.7915 53.4692 76.7915 53.1667C76.7915 52.8643 76.6945 52.6303 76.5004 52.4648C76.3064 52.2993 76.021 52.2137 75.6501 52.2137H74.1149V54.1255H75.6501V54.1312Z" fill="white"/>
<path d="M84.6768 51.2329C85.1962 51.5182 85.6014 51.9291 85.8924 52.4656C86.1835 53.002 86.3318 53.6412 86.3318 54.3831C86.3318 55.125 86.1835 55.7642 85.8924 56.3006C85.6014 56.8371 85.1962 57.2479 84.6768 57.5333C84.1575 57.8186 83.564 57.9613 82.8906 57.9613C82.2172 57.9613 81.6351 57.8186 81.1158 57.5333C80.5964 57.2479 80.1912 56.8371 79.9002 56.3006C79.6091 55.7642 79.4608 55.125 79.4608 54.3831C79.4608 53.6412 79.6034 53.002 79.9002 52.4656C80.1912 51.9291 80.5964 51.5182 81.1158 51.2329C81.6351 50.9475 82.2229 50.8049 82.8906 50.8049C83.5583 50.8049 84.1575 50.9475 84.6768 51.2329ZM84.1746 56.0894C84.4999 55.7128 84.6654 55.1421 84.6654 54.3831C84.6654 53.6241 84.4999 53.0534 84.1746 52.6767C83.8494 52.3001 83.4213 52.1117 82.8906 52.1117C82.3599 52.1117 81.9433 52.3001 81.6123 52.6767C81.287 53.0534 81.1215 53.6241 81.1215 54.3831C81.1215 55.1421 81.287 55.7128 81.6123 56.0894C81.9375 56.4661 82.3656 56.6544 82.8906 56.6544C83.4156 56.6544 83.8494 56.4661 84.1746 56.0894Z" fill="white"/>
<path d="M93.2332 56.7676C92.9764 57.1671 92.6168 57.4639 92.166 57.6636C91.7151 57.8633 91.1958 57.9604 90.6137 57.9604C90.0316 57.9604 89.518 57.8633 89.0614 57.6636C88.6106 57.4639 88.2568 57.1671 87.9942 56.7676C87.7317 56.3681 87.6062 55.8716 87.6062 55.2838V50.958H89.2383V55.1297C89.2383 56.1399 89.6949 56.6478 90.608 56.6478C91.0645 56.6478 91.407 56.5222 91.6352 56.2768C91.8635 56.0314 91.9777 55.6491 91.9777 55.1297V50.958H93.6098V55.2838C93.6098 55.8716 93.4786 56.3681 93.2218 56.7676H93.2332Z" fill="white"/>
<path d="M100.348 51.5572C100.787 51.9567 101.01 52.5103 101.01 53.2122C101.01 53.9142 100.787 54.4792 100.348 54.8786C99.9081 55.2781 99.286 55.4779 98.4871 55.4779H96.8378V57.812H95.2056V50.958H98.4871C99.286 50.958 99.9081 51.1577 100.348 51.5572ZM99.0521 53.9484C99.2461 53.7715 99.3431 53.5261 99.3431 53.2122C99.3431 52.8983 99.2461 52.6587 99.0463 52.4817C98.8466 52.3048 98.5613 52.2249 98.1903 52.2249H96.8264V54.2109H98.1903C98.567 54.2109 98.8523 54.1253 99.0463 53.9484H99.0521Z" fill="white"/>
<path d="M22.2664 33.3979C15.9888 33.3979 11.0352 28.4614 11.2122 22.395C11.3948 16.3285 16.6451 11.3921 22.9227 11.3921H38.0631C39.7523 7.40867 43.0966 3.81903 47.8219 0.554688H23.248C10.7899 0.554688 0.369077 10.3477 0.00954306 22.3893C-0.349991 34.4308 9.4944 44.2238 21.9468 44.2238H46.7376C42.1777 41.0565 39.1531 37.4269 37.4753 33.3864H22.2664V33.3979Z" fill="white"/>
<path d="M103.055 0.560235H63.1063C50.6482 0.560235 40.2217 10.3533 39.8622 22.3948C39.5026 34.4306 49.347 44.2294 61.8052 44.2294C74.2633 44.2294 84.6841 34.4306 85.0436 22.3948C85.0836 21.008 84.7526 18.8394 84.4844 17.367C84.3873 16.8363 84.3588 16.6822 84.3017 16.4026C84.2903 16.3455 87.041 15.5808 87.041 15.5808L76.7801 12.2137L71.3129 21.1678C71.8379 20.9624 74.0293 20.3061 74.0293 20.3061L74.1948 22.4005C74.0122 28.4669 68.3966 33.4034 62.119 33.4034C55.8415 33.4034 50.8879 28.4669 51.0705 22.4005C51.2531 16.3341 56.5035 11.3976 62.7753 11.3976H102.729C109.007 11.3976 113.966 16.3284 113.784 22.4005C113.601 28.4669 108.351 33.4034 102.073 33.4034H86.9497C84.4216 38.1801 81.163 41.8097 77.1453 44.2408H101.753C114.206 44.2408 124.632 34.442 124.992 22.4062C125.351 10.3647 115.513 0.571651 103.049 0.571651" fill="white"/>
</svg>
