<svg width="48" height="49" viewBox="0 0 48 49" fill="none" xmlns="http://www.w3.org/2000/svg">
<path d="M13.9783 28.2559L12.7252 32.9339L8.14515 33.0308C6.77639 30.492 6 27.5874 6 24.5007C6 21.5158 6.7259 18.7011 8.01262 16.2227H8.0136L12.0911 16.9702L13.8774 21.0233C13.5035 22.1132 13.2997 23.2832 13.2997 24.5007C13.2999 25.822 13.5392 27.0879 13.9783 28.2559Z" fill="#FBBB00"/>
<path d="M41.6881 21.1367C41.8949 22.2256 42.0026 23.3501 42.0026 24.4993C42.0026 25.788 41.8671 27.0451 41.609 28.2576C40.7328 32.3837 38.4432 35.9867 35.2715 38.5363L35.2705 38.5353L30.1346 38.2733L29.4078 33.7357C31.5123 32.5014 33.1571 30.5699 34.0235 28.2576H24.3984V21.1367H34.1639H41.6881Z" fill="#518EF8"/>
<path d="M35.2631 38.5366L35.2641 38.5375C32.1795 41.017 28.261 42.5005 23.9954 42.5005C17.1406 42.5005 11.1809 38.6691 8.14062 33.0308L13.9738 28.2559C15.4939 32.3127 19.4074 35.2007 23.9954 35.2007C25.9674 35.2007 27.815 34.6676 29.4003 33.7369L35.2631 38.5366Z" fill="#28B446"/>
<path d="M35.4922 10.6439L29.661 15.4178C28.0203 14.3923 26.0808 13.7998 24.0029 13.7998C19.3111 13.7998 15.3244 16.8202 13.8804 21.0226L8.01661 16.2219H8.01562C11.0113 10.4461 17.0462 6.5 24.0029 6.5C28.3704 6.5 32.3749 8.05573 35.4922 10.6439Z" fill="#F14336"/>
</svg>
