<svg width="20" height="22" viewBox="0 0 20 22" fill="none" xmlns="http://www.w3.org/2000/svg">
<mask id="path-1-inside-1_2789_102" fill="white">
<path fill-rule="evenodd" clip-rule="evenodd" d="M13.1485 21.8042L13.1485 21.8043L19.7637 20.3733C19.7637 20.3733 17.4412 4.67155 17.4266 4.56396C17.4126 4.46216 17.3275 4.40337 17.2523 4.39177C17.2479 4.39108 17.2436 4.39056 17.2393 4.39019C17.1621 4.38376 15.5424 4.2637 15.5163 4.26176C15.5091 4.25461 14.3731 3.12683 14.2481 3.00165C14.2295 2.98318 14.2084 2.96828 14.1856 2.95636C14.0535 2.88707 13.8632 2.91837 13.782 2.94226C13.768 2.94639 13.5323 3.01913 13.1424 3.13977C12.7607 2.04124 12.0869 1.03174 10.9017 1.03174C10.8689 1.03174 10.8353 1.03306 10.8016 1.03498C10.4645 0.589184 10.0469 0.395508 9.68625 0.395508C6.92518 0.395508 5.60607 3.84712 5.19249 5.60111C4.1196 5.93356 3.35742 6.16991 3.26007 6.20049C2.66121 6.38835 2.64227 6.40722 2.56363 6.97152C2.50445 7.39874 0.9375 19.5167 0.9375 19.5167L13.1475 21.8044L13.1485 21.8042ZM11.4344 3.66826L12.4676 3.34848C12.2058 2.54879 11.7991 1.8539 11.1883 1.77726C11.3404 2.21303 11.4352 2.76274 11.4352 3.44547C11.4352 3.52249 11.4348 3.59302 11.4344 3.66457L11.4344 3.66826ZM10.7109 3.77261C10.7109 2.94868 10.6005 2.33809 10.4307 1.91264C9.75744 2.20153 8.98731 2.9674 8.57644 4.55307L10.7102 3.8923L10.7102 3.89083C10.7106 3.85234 10.7109 3.81424 10.7109 3.77261ZM9.96453 1.25563C9.84964 1.17655 9.72958 1.13609 9.61042 1.13609C7.62722 1.13609 6.51314 3.73996 6.04398 5.33735L7.73062 4.81499C8.13116 2.72073 9.07965 1.67202 9.96453 1.25563Z"/>
</mask>
<path d="M13.1485 21.8042L14.1472 21.855L14.2134 20.5517L12.9378 20.8267L13.1485 21.8042ZM13.1485 21.8043L12.1497 21.7535L12.0834 23.0579L13.3599 22.7817L13.1485 21.8043ZM19.7637 20.3733L19.9751 21.3507L20.8899 21.1528L20.7529 20.227L19.7637 20.3733ZM17.4266 4.56396L18.4175 4.42958L18.4172 4.42756L17.4266 4.56396ZM17.2523 4.39177L17.0979 5.37977L17.0997 5.38005L17.2523 4.39177ZM17.2393 4.39019L17.3232 3.39372L17.3224 3.39366L17.2393 4.39019ZM15.5163 4.26176L14.8118 4.97144L15.074 5.23172L15.4424 5.25903L15.5163 4.26176ZM14.2481 3.00165L14.9556 2.29495L14.9535 2.29288L14.2481 3.00165ZM14.1856 2.95636L13.7211 3.84191L13.7229 3.84286L14.1856 2.95636ZM13.782 2.94226L13.4996 1.98296L13.4993 1.98306L13.782 2.94226ZM13.1424 3.13977L12.1978 3.46803L12.515 4.38071L13.4381 4.09508L13.1424 3.13977ZM10.8016 1.03498L10.0039 1.63812L10.3257 2.06367L10.8584 2.03336L10.8016 1.03498ZM5.19249 5.60111L5.48847 6.55631L6.03458 6.38709L6.16579 5.83062L5.19249 5.60111ZM3.26007 6.20049L3.55937 7.15465L3.55978 7.15452L3.26007 6.20049ZM2.56363 6.97152L1.5732 6.8335L1.57309 6.83431L2.56363 6.97152ZM0.9375 19.5167L-0.0542431 19.3885L-0.17542 20.3256L0.753341 20.4996L0.9375 19.5167ZM13.1475 21.8044L12.9634 22.7873L13.1613 22.8244L13.3582 22.782L13.1475 21.8044ZM12.4676 3.34848L12.7633 4.30377L13.7341 4.00328L13.418 3.03738L12.4676 3.34848ZM11.4344 3.66826L10.4344 3.66308L10.4274 5.02675L11.7301 4.62355L11.4344 3.66826ZM11.1883 1.77726L11.3129 0.785041L9.71301 0.584262L10.2442 2.10668L11.1883 1.77726ZM11.4344 3.66457L12.4344 3.66974L12.4344 3.66962L11.4344 3.66457ZM10.4307 1.91264L11.3595 1.54197L10.9792 0.589134L10.0364 0.993661L10.4307 1.91264ZM8.57644 4.55307L7.60841 4.30224L7.15839 6.03905L8.87226 5.50831L8.57644 4.55307ZM10.7102 3.8923L11.006 4.84754L11.703 4.63169L11.7102 3.90203L10.7102 3.8923ZM10.7102 3.89083L11.7102 3.90056L11.7102 3.90027L10.7102 3.89083ZM9.96453 1.25563L10.3903 2.16046L11.9658 1.41908L10.5315 0.43188L9.96453 1.25563ZM6.04398 5.33735L5.08451 5.05555L4.55922 6.84406L6.33983 6.29259L6.04398 5.33735ZM7.73062 4.81499L8.02646 5.77022L8.60002 5.59259L8.71282 5.00284L7.73062 4.81499ZM12.1498 21.7534L12.1497 21.7535L14.1472 21.8551L14.1472 21.855L12.1498 21.7534ZM13.3599 22.7817L19.9751 21.3507L19.5522 19.3959L12.937 20.8269L13.3599 22.7817ZM19.7637 20.3733C20.7529 20.227 20.7529 20.2269 20.7529 20.2268C20.7529 20.2267 20.7528 20.2265 20.7528 20.2262C20.7527 20.2258 20.7526 20.225 20.7525 20.2241C20.7522 20.2222 20.7518 20.2193 20.7512 20.2156C20.7501 20.208 20.7484 20.1968 20.7462 20.1819C20.7419 20.1522 20.7353 20.1081 20.7268 20.0506C20.7098 19.9356 20.6849 19.7668 20.6531 19.5521C20.5896 19.1225 20.4988 18.5087 20.3898 17.7719C20.1718 16.2982 19.8811 14.3321 19.5898 12.3627C19.2986 10.3932 19.0069 8.42048 18.7872 6.93335C18.6773 6.18978 18.5854 5.56767 18.5205 5.12811C18.488 4.90832 18.4623 4.73425 18.4446 4.61349C18.4258 4.48647 18.4174 4.42876 18.4175 4.42958L16.4357 4.69834C16.444 4.76007 17.0301 8.72408 17.6114 12.6552C17.9026 14.6247 18.1934 16.5908 18.4113 18.0645C18.5203 18.8014 18.6111 19.4151 18.6746 19.8447C18.7064 20.0595 18.7313 20.2282 18.7483 20.3432C18.7569 20.4007 18.7634 20.4448 18.7678 20.4745C18.77 20.4894 18.7716 20.5007 18.7728 20.5082C18.7733 20.512 18.7737 20.5148 18.774 20.5167C18.7742 20.5177 18.7743 20.5184 18.7743 20.5189C18.7744 20.5191 18.7744 20.5193 18.7744 20.5194C18.7744 20.5195 18.7744 20.5196 19.7637 20.3733ZM18.4172 4.42756C18.3286 3.7839 17.8038 3.46509 17.405 3.40349L17.0997 5.38005C16.8511 5.34165 16.4965 5.14043 16.4359 4.70035L18.4172 4.42756ZM17.4068 3.40378C17.3796 3.39952 17.3517 3.39612 17.3232 3.39372L17.1554 5.38667C17.1355 5.38499 17.1163 5.38265 17.0979 5.37977L17.4068 3.40378ZM17.3224 3.39366C17.2391 3.38671 15.6108 3.26602 15.5902 3.2645L15.4424 5.25903C15.4554 5.25999 15.8668 5.29049 16.2845 5.32154C16.4934 5.33707 16.7038 5.35273 16.8666 5.3649C16.9481 5.37099 17.0175 5.3762 17.0689 5.38007C17.0946 5.38201 17.1156 5.3836 17.1311 5.38479C17.1389 5.38539 17.1451 5.38587 17.1498 5.38623C17.155 5.38664 17.1566 5.38677 17.1561 5.38673L17.3224 3.39366ZM16.2209 3.55209C16.2121 3.54338 15.0787 2.41816 14.9556 2.29495L13.5406 3.70834C13.6676 3.8355 14.8061 4.96584 14.8118 4.97144L16.2209 3.55209ZM14.9535 2.29288C14.8561 2.19591 14.7508 2.12335 14.6483 2.06986L13.7229 3.84286C13.6661 3.8132 13.603 3.77046 13.5426 3.71041L14.9535 2.29288ZM14.6502 2.07081C14.3693 1.92346 14.0929 1.91023 13.9358 1.91479C13.7662 1.9197 13.613 1.94959 13.4996 1.98296L14.0643 3.90157C14.0322 3.91104 14.0147 3.91334 13.9937 3.91395C13.98 3.91434 13.9509 3.91429 13.9099 3.9073C13.8696 3.90042 13.8013 3.884 13.7211 3.84191L14.6502 2.07081ZM13.4993 1.98306C13.4767 1.98972 13.2296 2.066 12.8468 2.18447L13.4381 4.09508C13.6329 4.03479 13.789 3.98651 13.8982 3.95281C14.0138 3.91712 14.0659 3.90113 14.0647 3.90147L13.4993 1.98306ZM14.087 2.81152C13.6879 1.66288 12.7929 0.0317363 10.9017 0.0317363V2.03174C11.381 2.03174 11.8335 2.41961 12.1978 3.46803L14.087 2.81152ZM10.9017 0.0317363C10.8431 0.0317363 10.789 0.0340792 10.7448 0.0365936L10.8584 2.03336C10.8816 2.03205 10.8948 2.03174 10.9017 2.03174V0.0317363ZM11.5992 0.43184C11.1068 -0.219404 10.4122 -0.604492 9.68625 -0.604492V1.39551C9.68727 1.39551 9.71878 1.396 9.77523 1.42668C9.83078 1.45688 9.91341 1.51839 10.0039 1.63812L11.5992 0.43184ZM9.68625 -0.604492C7.82928 -0.604492 6.54379 0.569416 5.72885 1.78312C4.91092 3.00128 4.44139 4.42924 4.21918 5.37161L6.16579 5.83062C6.35717 5.019 6.75399 3.84415 7.38928 2.89801C8.02756 1.94741 8.78216 1.39551 9.68625 1.39551V-0.604492ZM4.89651 4.64592C3.82547 4.9778 3.06018 5.21511 2.96036 5.24647L3.55978 7.15452C3.65467 7.12471 4.41373 6.88933 5.48847 6.55631L4.89651 4.64592ZM2.96077 5.24634C2.82342 5.28942 2.65999 5.34052 2.51911 5.40028C2.37017 5.46347 2.15917 5.57083 1.97556 5.77355C1.785 5.98396 1.69991 6.21225 1.65453 6.38415C1.61417 6.53705 1.5909 6.7065 1.5732 6.8335L3.55406 7.10953C3.55886 7.07511 3.5631 7.04514 3.5671 7.01801C3.57111 6.99091 3.57459 6.96855 3.57777 6.94961C3.58096 6.93065 3.58351 6.91702 3.58549 6.90734C3.58748 6.89764 3.58847 6.89392 3.58828 6.89465C3.5882 6.89496 3.58095 6.92305 3.56068 6.96492C3.55021 6.98654 3.53649 7.0114 3.5188 7.038C3.501 7.06477 3.48067 7.09105 3.45796 7.11612C3.43532 7.14113 3.41243 7.16259 3.39053 7.18068C3.36885 7.1986 3.34947 7.21212 3.33421 7.22183C3.31914 7.23142 3.30791 7.23741 3.30234 7.24025C3.29686 7.24304 3.29561 7.2434 3.30022 7.24144C3.30483 7.23949 3.31347 7.23598 3.3275 7.23079C3.34151 7.2256 3.35915 7.21936 3.3816 7.21177C3.40402 7.2042 3.42967 7.1958 3.45966 7.18619C3.48968 7.17657 3.52245 7.16623 3.55937 7.15465L2.96077 5.24634ZM1.57309 6.83431C1.54269 7.05378 1.13512 10.1981 0.73665 13.2759C0.537076 14.8174 0.339353 16.3456 0.191525 17.4883C0.11761 18.0597 0.0561683 18.5347 0.0132053 18.8669C-0.00827616 19.033 -0.0251381 19.1634 -0.0366297 19.2523C-0.0423755 19.2967 -0.0467787 19.3307 -0.0497456 19.3537C-0.051229 19.3652 -0.0523533 19.3739 -0.0531068 19.3797C-0.0534836 19.3826 -0.0537676 19.3848 -0.0539575 19.3863C-0.0540524 19.387 -0.0541238 19.3875 -0.0541715 19.3879C-0.0541953 19.3881 -0.0542132 19.3882 -0.0542251 19.3883C-0.0542371 19.3884 -0.0542431 19.3885 0.9375 19.5167C1.92924 19.6449 1.92925 19.6449 1.92926 19.6448C1.92927 19.6447 1.92929 19.6446 1.92931 19.6444C1.92936 19.644 1.92943 19.6435 1.92953 19.6427C1.92972 19.6413 1.93 19.6391 1.93038 19.6362C1.93113 19.6303 1.93226 19.6216 1.93374 19.6102C1.93671 19.5872 1.94111 19.5532 1.94685 19.5088C1.95834 19.4199 1.97521 19.2895 1.99669 19.1234C2.03965 18.7913 2.10109 18.3162 2.175 17.7449C2.32282 16.6022 2.52053 15.0741 2.7201 13.5327C3.11989 10.4447 3.52539 7.31648 3.55417 7.10872L1.57309 6.83431ZM0.753341 20.4996L12.9634 22.7873L13.3317 20.8215L1.12166 18.5338L0.753341 20.4996ZM13.3582 22.782L13.3591 22.7818L12.9378 20.8267L12.9368 20.8269L13.3582 22.782ZM12.1719 2.39319L11.1388 2.71297L11.7301 4.62355L12.7633 4.30377L12.1719 2.39319ZM11.0638 2.76947C10.9992 2.76137 11.0367 2.72763 11.1565 2.88864C11.2766 3.05006 11.4028 3.31016 11.5172 3.65958L13.418 3.03738C13.2706 2.58712 13.0625 2.09992 12.7611 1.69482C12.4594 1.28929 11.9882 0.869793 11.3129 0.785041L11.0638 2.76947ZM12.4352 3.44547C12.4352 2.67181 12.3279 2.00785 12.1325 1.44784L10.2442 2.10668C10.3529 2.41821 10.4352 2.85367 10.4352 3.44547H12.4352ZM12.4344 3.66962C12.4348 3.59834 12.4352 3.52538 12.4352 3.44547H10.4352C10.4352 3.51959 10.4348 3.5877 10.4345 3.65952L12.4344 3.66962ZM12.4344 3.67343L12.4344 3.66974L10.4345 3.6594L10.4344 3.66308L12.4344 3.67343ZM9.50198 2.28331C9.60951 2.55275 9.71094 3.02689 9.71094 3.77261H11.7109C11.7109 2.87046 11.5916 2.12344 11.3595 1.54197L9.50198 2.28331ZM9.54448 4.80389C9.89856 3.43736 10.5045 2.96917 10.825 2.83162L10.0364 0.993661C9.0104 1.4339 8.07606 2.49743 7.60841 4.30224L9.54448 4.80389ZM10.4144 2.93705L8.28063 3.59782L8.87226 5.50831L11.006 4.84754L10.4144 2.93705ZM9.71026 3.88109L9.71025 3.88256L11.7102 3.90203L11.7102 3.90056L9.71026 3.88109ZM9.71094 3.77261C9.71094 3.80884 9.71063 3.84242 9.71026 3.88139L11.7102 3.90027C11.7105 3.86226 11.7109 3.81964 11.7109 3.77261H9.71094ZM9.61042 2.13609C9.49487 2.13609 9.42077 2.09534 9.39758 2.07938L10.5315 0.43188C10.2785 0.257765 9.9643 0.136092 9.61042 0.136092V2.13609ZM7.00346 5.61915C7.22451 4.86651 7.58403 3.93039 8.08337 3.20439C8.59468 2.46098 9.10662 2.13609 9.61042 2.13609V0.136092C8.13102 0.136092 7.09432 1.11314 6.43551 2.07101C5.76471 3.0463 5.33262 4.2108 5.08451 5.05555L7.00346 5.61915ZM7.43477 3.85975L5.74814 4.38212L6.33983 6.29259L8.02646 5.77022L7.43477 3.85975ZM9.53876 0.3508C8.29328 0.936868 7.1926 2.30473 6.74842 4.62713L8.71282 5.00284C9.06973 3.13673 9.86601 2.40717 10.3903 2.16046L9.53876 0.3508Z" fill="#0258E8" mask="url(#path-1-inside-1_2789_102)"/>
<path d="M10.7637 8.17537L9.95673 10.6332C9.95673 10.6332 9.24974 10.2468 8.3831 10.2468C7.11258 10.2468 7.04865 11.0632 7.04865 11.2689C7.04865 12.3914 9.90636 12.8215 9.90636 15.4509C9.90636 17.5195 8.62498 18.8516 6.89724 18.8516C4.82394 18.8516 3.76367 17.5303 3.76367 17.5303L4.31881 15.6523C4.31881 15.6523 5.40868 16.6103 6.32832 16.6103C6.92924 16.6103 7.17368 16.1259 7.17368 15.7719C7.17368 14.3077 4.82919 14.2423 4.82919 11.8363C4.82919 9.81123 6.24871 7.85156 9.11415 7.85156C10.2182 7.85156 10.7637 8.17537 10.7637 8.17537Z" fill="#0258E8"/>
</svg>
