<svg width="20" height="22" viewBox="0 0 20 22" fill="white" xmlns="http://www.w3.org/2000/svg">
<mask id="path-1-inside-1_2789_2075" fill="currentColor" stroke="white">
<path fill-rule="evenodd" clip-rule="evenodd" d="M12.4766 21.4048L12.4766 21.4049L19.0918 19.9739C19.0918 19.9739 16.7693 4.27214 16.7547 4.16454C16.7407 4.06275 16.6556 4.00396 16.5805 3.99236C16.5761 3.99167 16.5717 3.99114 16.5674 3.99078C16.4903 3.98435 14.8705 3.86428 14.8444 3.86235C14.8372 3.85519 13.7013 2.72742 13.5762 2.60223C13.5577 2.58377 13.5366 2.56886 13.5137 2.55695C13.3816 2.48766 13.1913 2.51895 13.1101 2.54285C13.0961 2.54698 12.8604 2.61972 12.4706 2.74036C12.0888 1.64183 11.4151 0.632322 10.2298 0.632322C10.1971 0.632322 10.1634 0.633649 10.1297 0.635565C9.79262 0.18977 9.37505 -0.00390625 9.01437 -0.00390625C6.25331 -0.00390625 4.9342 3.44771 4.52061 5.2017C3.44773 5.53415 2.68555 5.7705 2.58819 5.80108C1.98933 5.98893 1.97039 6.0078 1.89176 6.5721C1.83258 6.99932 0.265625 19.1173 0.265625 19.1173L12.4756 21.405L12.4766 21.4048ZM10.7625 3.26884L11.7957 2.94907C11.5339 2.14938 11.1272 1.45449 10.5165 1.37784C10.6685 1.81362 10.7633 2.36332 10.7633 3.04606C10.7633 3.12307 10.7629 3.19361 10.7626 3.26516L10.7625 3.26884ZM10.0391 3.3732C10.0391 2.54926 9.92866 1.93868 9.75887 1.51323C9.08557 1.80212 8.31543 2.56798 7.90457 4.15365L10.0383 3.49288L10.0383 3.49141C10.0387 3.45293 10.0391 3.41482 10.0391 3.3732ZM9.29266 0.856215C9.17776 0.777137 9.05771 0.736678 8.93854 0.736678C6.95535 0.736678 5.84127 3.34055 5.37211 4.93794L7.05874 4.41557C7.45929 2.32132 8.40777 1.2726 9.29266 0.856215Z"/>
</mask>
<path d="M12.4766 21.4048L13.4753 21.4556L13.5416 20.1523L12.2659 20.4272L12.4766 21.4048ZM12.4766 21.4049L11.4779 21.3541L11.4116 22.6584L12.688 22.3823L12.4766 21.4049ZM19.0918 19.9739L19.3032 20.9513L20.218 20.7534L20.081 19.8275L19.0918 19.9739ZM16.7547 4.16454L17.7456 4.03016L17.7454 4.02815L16.7547 4.16454ZM16.5805 3.99236L16.426 4.98036L16.4278 4.98064L16.5805 3.99236ZM16.5674 3.99078L16.6513 2.99431L16.6505 2.99424L16.5674 3.99078ZM14.8444 3.86235L14.1399 4.57202L14.4021 4.8323L14.7705 4.85961L14.8444 3.86235ZM13.5762 2.60223L14.2837 1.89554L14.2817 1.89347L13.5762 2.60223ZM13.5137 2.55695L13.0492 3.4425L13.051 3.44345L13.5137 2.55695ZM13.1101 2.54285L12.8277 1.58354L12.8274 1.58365L13.1101 2.54285ZM12.4706 2.74036L11.526 3.06861L11.8431 3.9813L12.7662 3.69566L12.4706 2.74036ZM10.1297 0.635565L9.33207 1.2387L9.65386 1.66426L10.1865 1.63395L10.1297 0.635565ZM4.52061 5.2017L4.81659 6.15689L5.3627 5.98767L5.49392 5.43121L4.52061 5.2017ZM2.58819 5.80108L2.8875 6.75524L2.88791 6.75511L2.58819 5.80108ZM1.89176 6.5721L0.901325 6.43408L0.901213 6.43489L1.89176 6.5721ZM0.265625 19.1173L-0.726118 18.9891L-0.847295 19.9262L0.081466 20.1002L0.265625 19.1173ZM12.4756 21.405L12.2915 22.3879L12.4894 22.425L12.6863 22.3826L12.4756 21.405ZM11.7957 2.94907L12.0914 3.90436L13.0623 3.60386L12.7461 2.63797L11.7957 2.94907ZM10.7625 3.26884L9.76256 3.26367L9.75551 4.62733L11.0582 4.22413L10.7625 3.26884ZM10.5165 1.37784L10.641 0.385627L9.04113 0.184848L9.57229 1.70726L10.5165 1.37784ZM10.7626 3.26516L11.7626 3.27033L11.7626 3.27021L10.7626 3.26516ZM9.75887 1.51323L10.6876 1.14256L10.3074 0.18972L9.36456 0.594247L9.75887 1.51323ZM7.90457 4.15365L6.93654 3.90283L6.48651 5.63964L8.20038 5.1089L7.90457 4.15365ZM10.0383 3.49288L10.3341 4.44813L11.0312 4.23227L11.0383 3.50262L10.0383 3.49288ZM10.0383 3.49141L11.0383 3.50115L11.0383 3.50085L10.0383 3.49141ZM9.29266 0.856215L9.71843 1.76104L11.294 1.01967L9.85961 0.0324658L9.29266 0.856215ZM5.37211 4.93794L4.41264 4.65614L3.88735 6.44464L5.66795 5.89317L5.37211 4.93794ZM7.05874 4.41557L7.35459 5.37081L7.92815 5.19317L8.04094 4.60343L7.05874 4.41557ZM11.4779 21.354L11.4779 21.3541L13.4753 21.4557L13.4753 21.4556L11.4779 21.354ZM12.688 22.3823L19.3032 20.9513L18.8804 18.9965L12.2651 20.4275L12.688 22.3823ZM19.0918 19.9739C20.081 19.8275 20.081 19.8275 20.081 19.8274C20.081 19.8272 20.081 19.8271 20.0809 19.8268C20.0809 19.8263 20.0808 19.8256 20.0806 19.8247C20.0803 19.8228 20.0799 19.8199 20.0794 19.8162C20.0782 19.8086 20.0766 19.7973 20.0744 19.7825C20.07 19.7528 20.0635 19.7087 20.0549 19.6512C20.0379 19.5361 20.013 19.3674 19.9812 19.1527C19.9177 18.7231 19.8269 18.1093 19.7179 17.3725C19.5 15.8988 19.2092 13.9327 18.918 11.9633C18.6267 9.99384 18.3351 8.02107 18.1153 6.53394C18.0054 5.79037 17.9135 5.16826 17.8486 4.7287C17.8162 4.5089 17.7905 4.33484 17.7727 4.21408C17.754 4.08706 17.7455 4.02935 17.7456 4.03016L15.7638 4.29892C15.7722 4.36066 16.3582 8.32467 16.9395 12.2558C17.2307 14.2253 17.5215 16.1914 17.7394 17.6651C17.8484 18.402 17.9392 19.0157 18.0027 19.4453C18.0345 19.6601 18.0595 19.8288 18.0765 19.9438C18.085 20.0013 18.0915 20.0454 18.0959 20.0751C18.0981 20.09 18.0998 20.1013 18.1009 20.1088C18.1014 20.1126 18.1019 20.1154 18.1021 20.1173C18.1023 20.1183 18.1024 20.119 18.1025 20.1195C18.1025 20.1197 18.1025 20.1199 18.1025 20.12C18.1026 20.1201 18.1026 20.1202 19.0918 19.9739ZM17.7454 4.02815C17.6567 3.38449 17.1319 3.06568 16.7331 3.00408L16.4278 4.98064C16.1792 4.94224 15.8246 4.74101 15.7641 4.30094L17.7454 4.02815ZM16.735 3.00436C16.7077 3.00011 16.6798 2.99671 16.6513 2.99431L16.4835 4.98725C16.4636 4.98558 16.4444 4.98324 16.426 4.98035L16.735 3.00436ZM16.6505 2.99424C16.5673 2.9873 14.9389 2.86661 14.9184 2.86509L14.7705 4.85961C14.7836 4.86058 15.1949 4.89107 15.6126 4.92213C15.8215 4.93765 16.0319 4.95331 16.1948 4.96549C16.2763 4.97158 16.3457 4.97678 16.397 4.98066C16.4228 4.9826 16.4437 4.98419 16.4593 4.98538C16.4671 4.98598 16.4733 4.98646 16.4779 4.98682C16.4831 4.98723 16.4847 4.98736 16.4843 4.98732L16.6505 2.99424ZM15.549 3.15268C15.5402 3.14396 14.4068 2.01874 14.2837 1.89554L12.8687 3.30893C12.9957 3.43609 14.1343 4.56642 14.1399 4.57202L15.549 3.15268ZM14.2817 1.89347C14.1842 1.7965 14.0789 1.72394 13.9765 1.67045L13.051 3.44345C12.9942 3.41378 12.9311 3.37104 12.8708 3.311L14.2817 1.89347ZM13.9783 1.6714C13.6974 1.52405 13.4211 1.51082 13.2639 1.51537C13.0943 1.52028 12.9411 1.55018 12.8277 1.58354L13.3925 3.50216C13.3603 3.51163 13.3429 3.51392 13.3218 3.51453C13.3081 3.51493 13.279 3.51488 13.238 3.50788C13.1978 3.50101 13.1294 3.48458 13.0492 3.4425L13.9783 1.6714ZM12.8274 1.58365C12.8048 1.5903 12.5578 1.66659 12.1749 1.78505L12.7662 3.69566C12.961 3.63538 13.1172 3.5871 13.2263 3.5534C13.3419 3.51771 13.394 3.50171 13.3928 3.50205L12.8274 1.58365ZM13.4151 2.4121C13.016 1.26346 12.121 -0.367678 10.2298 -0.367678V1.63232C10.7091 1.63232 11.1616 2.02019 11.526 3.06861L13.4151 2.4121ZM10.2298 -0.367678C10.1713 -0.367678 10.1171 -0.365335 10.0729 -0.362821L10.1865 1.63395C10.2097 1.63263 10.2229 1.63232 10.2298 1.63232V-0.367678ZM10.9273 0.0324259C10.4349 -0.618818 9.74031 -1.00391 9.01437 -1.00391V0.996094C9.01539 0.996094 9.0469 0.99659 9.10335 1.02727C9.1589 1.05746 9.24154 1.11897 9.33207 1.2387L10.9273 0.0324259ZM9.01437 -1.00391C7.1574 -1.00391 5.87191 0.170002 5.05697 1.3837C4.23904 2.60187 3.76951 4.02982 3.5473 4.9722L5.49392 5.43121C5.6853 4.61958 6.08212 3.44474 6.7174 2.49859C7.35568 1.54799 8.11028 0.996094 9.01437 0.996094V-1.00391ZM4.22463 4.24651C3.15359 4.57838 2.3883 4.81569 2.28848 4.84705L2.88791 6.75511C2.9828 6.7253 3.74186 6.48992 4.81659 6.15689L4.22463 4.24651ZM2.28889 4.84692C2.15155 4.89 1.98811 4.9411 1.84723 5.00087C1.69829 5.06406 1.48729 5.17142 1.30369 5.37414C1.11313 5.58455 1.02804 5.81284 0.982657 5.98473C0.942293 6.13763 0.919022 6.30709 0.901325 6.43408L2.88219 6.71012C2.88698 6.67569 2.89122 6.64572 2.89523 6.61859C2.89923 6.59149 2.90272 6.56914 2.9059 6.5502C2.90908 6.53124 2.91164 6.51761 2.91362 6.50792C2.9156 6.49822 2.9166 6.49451 2.91641 6.49523C2.91632 6.49555 2.90908 6.52363 2.8888 6.56551C2.87833 6.58713 2.86462 6.61199 2.84692 6.63859C2.82912 6.66536 2.80879 6.69164 2.78609 6.71671C2.76344 6.74171 2.74055 6.76317 2.71866 6.78127C2.69697 6.79919 2.67759 6.81271 2.66234 6.82242C2.64727 6.83201 2.63603 6.838 2.63047 6.84083C2.62498 6.84362 2.62374 6.84398 2.62834 6.84203C2.63295 6.84007 2.64159 6.83657 2.65563 6.83137C2.66963 6.82618 2.68727 6.81995 2.70972 6.81236C2.73215 6.80478 2.7578 6.79639 2.78778 6.78677C2.8178 6.77715 2.85058 6.76682 2.8875 6.75524L2.28889 4.84692ZM0.901213 6.43489C0.870812 6.65436 0.463249 9.79872 0.0647751 12.8765C-0.134799 14.418 -0.332522 15.9461 -0.48035 17.0889C-0.554265 17.6603 -0.615707 18.1353 -0.65867 18.4675C-0.680151 18.6336 -0.697013 18.764 -0.708505 18.8528C-0.714251 18.8973 -0.718654 18.9313 -0.721621 18.9543C-0.723104 18.9657 -0.724228 18.9744 -0.724982 18.9803C-0.725359 18.9832 -0.725643 18.9854 -0.725833 18.9868C-0.725927 18.9876 -0.725999 18.9881 -0.726047 18.9885C-0.72607 18.9887 -0.726088 18.9888 -0.7261 18.9889C-0.726112 18.989 -0.726118 18.9891 0.265625 19.1173C1.25737 19.2455 1.25737 19.2455 1.25739 19.2454C1.2574 19.2453 1.25742 19.2452 1.25744 19.245C1.25749 19.2446 1.25756 19.2441 1.25765 19.2433C1.25784 19.2419 1.25813 19.2397 1.2585 19.2368C1.25926 19.2309 1.26038 19.2222 1.26186 19.2108C1.26483 19.1878 1.26923 19.1538 1.27498 19.1093C1.28647 19.0205 1.30333 18.8901 1.32481 18.724C1.36777 18.3918 1.42921 17.9168 1.50312 17.3455C1.65095 16.2028 1.84866 14.6747 2.04822 13.1333C2.44802 10.0453 2.85352 6.91706 2.8823 6.70931L0.901213 6.43489ZM0.081466 20.1002L12.2915 22.3879L12.6598 20.4221L0.449784 18.1344L0.081466 20.1002ZM12.6863 22.3826L12.6873 22.3824L12.2659 20.4272L12.265 20.4274L12.6863 22.3826ZM11.5 1.99378L10.4669 2.31355L11.0582 4.22413L12.0914 3.90436L11.5 1.99378ZM10.392 2.37006C10.3274 2.36195 10.3649 2.32822 10.4846 2.48923C10.6047 2.65065 10.731 2.91075 10.8453 3.26017L12.7461 2.63797C12.5987 2.1877 12.3907 1.70051 12.0893 1.29541C11.7876 0.88988 11.3163 0.470379 10.641 0.385627L10.392 2.37006ZM11.7633 3.04606C11.7633 2.27239 11.656 1.60844 11.4607 1.04843L9.57229 1.70726C9.68098 2.01879 9.76329 2.45425 9.76329 3.04606H11.7633ZM11.7626 3.27021C11.7629 3.19893 11.7633 3.12597 11.7633 3.04606H9.76329C9.76329 3.12018 9.76294 3.18829 9.76258 3.2601L11.7626 3.27021ZM11.7625 3.27402L11.7626 3.27033L9.76258 3.25998L9.76256 3.26367L11.7625 3.27402ZM8.8301 1.8839C8.93763 2.15334 9.03906 2.62748 9.03906 3.3732H11.0391C11.0391 2.47105 10.9197 1.72402 10.6876 1.14256L8.8301 1.8839ZM8.8726 4.40448C9.22668 3.03795 9.83261 2.56975 10.1532 2.4322L9.36456 0.594247C8.33853 1.03449 7.40418 2.09801 6.93654 3.90283L8.8726 4.40448ZM9.74251 2.53764L7.60875 3.19841L8.20038 5.1089L10.3341 4.44813L9.74251 2.53764ZM9.03839 3.48168L9.03837 3.48315L11.0383 3.50262L11.0383 3.50115L9.03839 3.48168ZM9.03906 3.3732C9.03906 3.40942 9.03875 3.44301 9.03838 3.48197L11.0383 3.50085C11.0387 3.46285 11.0391 3.42022 11.0391 3.3732H9.03906ZM8.93854 1.73668C8.82299 1.73668 8.74889 1.69592 8.7257 1.67996L9.85961 0.0324658C9.60663 -0.141649 9.29243 -0.263322 8.93854 -0.263322V1.73668ZM6.33158 5.21974C6.55263 4.4671 6.91216 3.53097 7.41149 2.80498C7.9228 2.06157 8.43474 1.73668 8.93854 1.73668V-0.263322C7.45914 -0.263322 6.42245 0.713723 5.76363 1.6716C5.09284 2.64688 4.66074 3.81139 4.41264 4.65614L6.33158 5.21974ZM6.7629 3.46034L5.07626 3.9827L5.66795 5.89317L7.35459 5.37081L6.7629 3.46034ZM8.86688 -0.0486144C7.62141 0.537454 6.52073 1.90531 6.07655 4.22772L8.04094 4.60343C8.39785 2.73732 9.19414 2.00775 9.71843 1.76104L8.86688 -0.0486144Z" fill="white" mask="url(#path-1-inside-1_2789_2075)"/>
<path d="M10.0918 7.77596L9.28486 10.2337C9.28486 10.2337 8.57787 9.84738 7.71122 9.84738C6.44071 9.84738 6.37678 10.6638 6.37678 10.8695C6.37678 11.992 9.23448 12.4221 9.23448 15.0514C9.23448 17.1201 7.95311 18.4521 6.22536 18.4521C4.15206 18.4521 3.0918 17.1309 3.0918 17.1309L3.64694 15.2528C3.64694 15.2528 4.7368 16.2109 5.65644 16.2109C6.25736 16.2109 6.5018 15.7265 6.5018 15.3725C6.5018 13.9082 4.15731 13.8429 4.15731 11.4369C4.15731 9.41182 5.57684 7.45215 8.44227 7.45215C9.54635 7.45215 10.0918 7.77596 10.0918 7.77596Z" fill="#D9D9D9"/>
</svg>
