<svg width="24" height="24" viewBox="0 0 24 24" fill="none" xmlns="http://www.w3.org/2000/svg">
<rect width="24" height="24" rx="12" fill="#0A66C2"/>
<path d="M18.0865 15.5002C17.9127 15.5018 17.7467 15.5715 17.6247 15.6938C17.5027 15.8162 17.4347 15.9814 17.4355 16.1533C17.4363 16.3251 17.506 16.4897 17.6291 16.6109C17.7523 16.7321 17.919 16.8002 18.0928 16.8002C18.2666 16.8002 18.4333 16.7321 18.5565 16.6109C18.6796 16.4897 18.7493 16.3251 18.7501 16.1533C18.7509 15.9814 18.6829 15.8162 18.5609 15.6938C18.4389 15.5715 18.2729 15.5018 18.0991 15.5002H18.0865ZM18.0865 16.7258C17.9725 16.7277 17.8605 16.6961 17.7647 16.635C17.6689 16.5739 17.5935 16.4861 17.5481 16.3827C17.5028 16.2793 17.4894 16.1649 17.5098 16.054C17.5302 15.9431 17.5834 15.8406 17.6626 15.7596C17.7419 15.6786 17.8436 15.6226 17.955 15.5988C18.0665 15.5749 18.1825 15.5843 18.2886 15.6257C18.3946 15.6671 18.4858 15.7387 18.5507 15.8313C18.6156 15.924 18.6513 16.0337 18.6532 16.1464V16.1559C18.6564 16.3038 18.6 16.4469 18.4966 16.5537C18.3931 16.6605 18.251 16.7223 18.1015 16.7255H18.0866L18.0865 16.7258ZM15.5634 15.3226H14.1351V13.1106C14.1351 12.5831 14.1256 11.9041 13.3922 11.9041C12.6484 11.9041 12.5345 12.4788 12.5345 13.0722V15.3224H11.1063V10.7737H12.4774V11.3953H12.4966C12.6338 11.1633 12.8321 10.9724 13.0703 10.843C13.3086 10.7136 13.5778 10.6506 13.8494 10.6605C15.297 10.6605 15.564 11.6022 15.564 12.8272L15.5634 15.3226ZM9.49473 10.1519C9.3308 10.1519 9.17054 10.1039 9.03422 10.0138C8.8979 9.92378 8.79165 9.79579 8.72889 9.64602C8.66613 9.49626 8.64968 9.33145 8.68164 9.17244C8.71359 9.01344 8.7925 8.86737 8.90839 8.75271C9.02429 8.63806 9.17196 8.55997 9.33273 8.52831C9.49351 8.49666 9.66016 8.51286 9.81162 8.57487C9.96308 8.63688 10.0926 8.74192 10.1836 8.8767C10.2747 9.01148 10.3234 9.16995 10.3234 9.33206C10.3234 9.4397 10.302 9.54629 10.2604 9.64575C10.2187 9.74521 10.1577 9.83558 10.0808 9.9117C10.0038 9.98783 9.91245 10.0482 9.8119 10.0894C9.71135 10.1306 9.60357 10.1519 9.49473 10.1519ZM10.2089 15.3226H8.7791V10.7737H10.2089V15.3226ZM16.2754 7.20084H8.0614C7.87497 7.19876 7.69532 7.26997 7.56195 7.39881C7.42857 7.52765 7.35237 7.70358 7.3501 7.88795V16.0448C7.3523 16.2293 7.42845 16.4054 7.56182 16.5343C7.69519 16.6633 7.87488 16.7347 8.0614 16.7327H16.2754C16.4623 16.735 16.6425 16.6639 16.7764 16.5349C16.9103 16.4059 16.987 16.2297 16.9895 16.0448V7.88737C16.9869 7.70263 16.9102 7.52649 16.7763 7.39766C16.6424 7.26882 16.4622 7.19782 16.2754 7.20026V7.20084ZM18.1908 16.1914C18.2152 16.1916 18.2395 16.1869 18.262 16.1775C18.2845 16.1681 18.3049 16.1542 18.3218 16.1367C18.3386 16.1192 18.3517 16.0984 18.3601 16.0757C18.3686 16.053 18.3722 16.0288 18.3708 16.0047C18.3708 15.8723 18.29 15.809 18.1243 15.809H17.8565V16.5023H17.9572V16.2001H18.081L18.0838 16.2038L18.2759 16.5023H18.3836L18.1769 16.1933L18.1908 16.1914ZM18.0743 16.1219H17.9575V15.8876H18.1055C18.182 15.8876 18.2692 15.8999 18.2692 15.9989C18.2692 16.1128 18.181 16.1219 18.0737 16.1219" fill="white"/>
</svg>
