<svg width="24" height="24" viewBox="0 0 24 24" fill="none" xmlns="http://www.w3.org/2000/svg">
<path d="M12 -0.000976562C5.241 -0.000976562 0 4.95189 0 11.6387C0 15.1366 1.434 18.1605 3.768 20.2485C3.963 20.4225 4.083 20.6685 4.089 20.9324L4.155 23.0684C4.15981 23.2255 4.20314 23.3791 4.2812 23.5156C4.35926 23.6521 4.46965 23.7673 4.60267 23.8512C4.73569 23.935 4.88726 23.9849 5.04408 23.9964C5.20089 24.008 5.35814 23.9808 5.502 23.9174L7.884 22.8674C8.085 22.7774 8.313 22.7624 8.526 22.8194C9.621 23.1194 10.785 23.2814 12 23.2814C18.759 23.2814 24 18.3285 24 11.6417C24 4.95489 18.759 -0.000976562 12 -0.000976562Z" fill="url(#paint0_radial_165_11641)"/>
<path d="M4.79413 15.0429L8.31913 9.4511C8.45174 9.24057 8.62655 9.05982 8.83254 8.92026C9.03853 8.7807 9.27121 8.68535 9.5159 8.64025C9.7606 8.59515 10.012 8.60126 10.2542 8.65821C10.4964 8.71516 10.7242 8.8217 10.9231 8.97112L13.7281 11.0741C13.8534 11.1678 14.0057 11.2182 14.1621 11.2177C14.3186 11.2171 14.4706 11.1657 14.5951 11.0711L18.3811 8.19714C18.8851 7.81315 19.5451 8.41913 19.2091 8.95612L15.6811 14.545C15.5485 14.7555 15.3737 14.9362 15.1677 15.0758C14.9617 15.2154 14.7291 15.3107 14.4844 15.3558C14.2397 15.4009 13.9883 15.3948 13.7461 15.3379C13.5039 15.2809 13.2761 15.1744 13.0771 15.025L10.2721 12.922C10.1469 12.8283 9.99456 12.7778 9.83813 12.7784C9.6817 12.7789 9.52971 12.8304 9.40513 12.925L5.61913 15.7989C5.11513 16.1829 4.45513 15.5799 4.79413 15.0429Z" fill="white"/>
<defs>
<radialGradient id="paint0_radial_165_11641" cx="0" cy="0" r="1" gradientUnits="userSpaceOnUse" gradientTransform="translate(4.02 23.9984) scale(26.4 26.3993)">
<stop stop-color="#0099FF"/>
<stop offset="0.6" stop-color="#A033FF"/>
<stop offset="0.9" stop-color="#FF5280"/>
<stop offset="1" stop-color="#FF7061"/>
</radialGradient>
</defs>
</svg>
