<svg width="396" height="102" viewBox="0 0 396 102" fill="none" xmlns="http://www.w3.org/2000/svg">
<g filter="url(#filter0_d_889_36765)">
<g clip-path="url(#clip0_889_36765)">
<rect width="105" height="90" transform="translate(6 6)" fill="#F9F9F9"/>
<mask id="mask0_889_36765" style="mask-type:alpha" maskUnits="userSpaceOnUse" x="28" y="20" width="61" height="62">
<path d="M58.3693 20.7502L32.593 20.7811L39.3611 27.5492C32.5807 33.0885 28.25 41.5153 28.25 50.9541C28.25 51.0577 28.2505 51.1611 28.2516 51.2645L28.2775 76.9068L35.0505 70.1387C40.5898 76.9191 49.0166 81.2498 58.4553 81.2498C68.2779 81.2498 77.0043 76.5613 82.5206 69.3003L71.4268 58.0898C68.8627 62.8319 63.8485 65.879 58.4557 65.879C53.6069 65.879 48.7774 63.0319 46.2021 58.9901L54.0548 51.1373L43.6219 51.1353C43.6211 51.075 43.6207 51.0147 43.6207 50.9544C43.6207 46.1057 46.4679 41.2762 50.5097 38.7008L58.3625 46.5535L58.3645 36.122C58.4249 36.1213 58.4853 36.1209 58.5457 36.1209C63.3945 36.1209 68.224 38.968 70.7993 43.0099L62.9466 50.8626L88.7491 50.8677L88.75 50.8694L88.7191 25.0931L81.9509 31.8613C76.4116 25.0809 67.9848 20.7502 58.5461 20.7502C58.4868 20.7502 58.4285 20.7498 58.3693 20.7502Z" fill="black"/>
</mask>
<g mask="url(#mask0_889_36765)">
<path d="M88.7536 50.8693C88.7536 50.8239 88.7227 25.093 88.7227 25.093L81.9545 31.8611C76.4152 25.0807 67.9884 20.75 58.5497 20.75C48.7271 20.75 40.0007 25.4385 34.4844 32.6995L45.5782 43.91C48.1423 39.1679 53.1565 36.1207 58.5493 36.1207C63.3981 36.1207 68.2276 38.9679 70.803 43.0097L62.9502 50.8625L88.7527 50.8675" fill="#1C3AA9"/>
<g filter="url(#filter1_d_889_36765)">
<path d="M58.3693 20.75L32.593 20.7809L39.3611 27.549C32.5807 33.0884 28.25 41.5152 28.25 50.9539C28.25 60.7765 32.9386 69.5029 40.1995 75.0192L51.41 63.9254C46.6679 61.3613 43.6207 56.347 43.6207 50.9543C43.6207 46.1055 46.4679 41.276 50.5097 38.7006L58.3625 46.5534L58.3675 20.7509" fill="#4285F4"/>
</g>
<g filter="url(#filter2_d_889_36765)">
<path d="M28.2578 51.1299L28.2839 76.9062L35.0569 70.138C40.5962 76.9184 49.023 81.2492 58.4617 81.2492C68.2843 81.2492 77.0107 76.5606 82.527 69.2997L71.4332 58.0892C68.8691 62.8313 63.8549 65.8784 58.4621 65.8784C53.6133 65.8784 48.7838 63.0313 46.2085 58.9894L54.0612 51.1367L28.2587 51.1316" fill="#ABABAB"/>
</g>
</g>
<rect width="279" height="90" transform="translate(111 6)" fill="#4A90E2"/>
<path d="M138.104 34.6782V46.9609H136.333V32.6978H137.952L138.104 34.6782ZM145.045 37.7632V37.9631C145.045 38.7122 144.956 39.4072 144.779 40.0483C144.601 40.6831 144.341 41.2354 143.998 41.7051C143.661 42.1748 143.246 42.5398 142.75 42.8C142.255 43.0603 141.687 43.1904 141.046 43.1904C140.392 43.1904 139.815 43.0825 139.313 42.8667C138.812 42.6509 138.386 42.3367 138.037 41.9241C137.688 41.5115 137.409 41.0164 137.199 40.4387C136.996 39.8611 136.857 39.2104 136.781 38.4868V37.4204C136.857 36.6587 137 35.9763 137.209 35.3733C137.418 34.7703 137.695 34.2561 138.037 33.8308C138.386 33.3992 138.809 33.0723 139.304 32.8501C139.799 32.6216 140.37 32.5073 141.018 32.5073C141.665 32.5073 142.24 32.6343 142.741 32.8882C143.242 33.1357 143.665 33.4912 144.007 33.9546C144.35 34.418 144.607 34.9734 144.779 35.6208C144.956 36.262 145.045 36.9761 145.045 37.7632ZM143.274 37.9631V37.7632C143.274 37.249 143.22 36.7666 143.112 36.3159C143.004 35.8589 142.836 35.459 142.608 35.1162C142.385 34.7671 142.1 34.4941 141.751 34.2974C141.402 34.0942 140.986 33.9927 140.503 33.9927C140.059 33.9927 139.672 34.0688 139.342 34.2212C139.018 34.3735 138.742 34.5798 138.513 34.8401C138.285 35.094 138.098 35.386 137.952 35.7161C137.812 36.0398 137.707 36.3762 137.637 36.7253V39.1914C137.764 39.6357 137.942 40.0547 138.171 40.4482C138.399 40.8354 138.704 41.1497 139.085 41.3909C139.466 41.6257 139.945 41.7432 140.522 41.7432C140.999 41.7432 141.408 41.6448 141.751 41.448C142.1 41.2449 142.385 40.9688 142.608 40.6196C142.836 40.2705 143.004 39.8706 143.112 39.4199C143.22 38.9629 143.274 38.4773 143.274 37.9631ZM149.054 34.3164V43H147.292V32.6978H149.006L149.054 34.3164ZM152.272 32.6406L152.262 34.2783C152.116 34.2466 151.977 34.2275 151.844 34.2212C151.717 34.2085 151.571 34.2021 151.406 34.2021C150.999 34.2021 150.641 34.2656 150.33 34.3926C150.019 34.5195 149.755 34.6973 149.539 34.9258C149.323 35.1543 149.152 35.4272 149.025 35.7446C148.905 36.0557 148.825 36.3984 148.787 36.7729L148.292 37.0586C148.292 36.4365 148.352 35.8525 148.473 35.3066C148.6 34.7607 148.793 34.2783 149.054 33.8594C149.314 33.4341 149.644 33.104 150.044 32.8691C150.45 32.6279 150.933 32.5073 151.491 32.5073C151.618 32.5073 151.764 32.5232 151.929 32.5549C152.094 32.5803 152.208 32.6089 152.272 32.6406ZM153.243 37.9631V37.7441C153.243 37.0015 153.351 36.3127 153.567 35.678C153.783 35.0369 154.094 34.4814 154.5 34.0117C154.906 33.5356 155.398 33.1675 155.976 32.9072C156.553 32.6406 157.201 32.5073 157.918 32.5073C158.642 32.5073 159.292 32.6406 159.87 32.9072C160.454 33.1675 160.949 33.5356 161.355 34.0117C161.768 34.4814 162.082 35.0369 162.298 35.678C162.514 36.3127 162.622 37.0015 162.622 37.7441V37.9631C162.622 38.7058 162.514 39.3945 162.298 40.0293C162.082 40.6641 161.768 41.2195 161.355 41.6956C160.949 42.1653 160.457 42.5334 159.88 42.8C159.308 43.0603 158.661 43.1904 157.937 43.1904C157.214 43.1904 156.563 43.0603 155.985 42.8C155.408 42.5334 154.913 42.1653 154.5 41.6956C154.094 41.2195 153.783 40.6641 153.567 40.0293C153.351 39.3945 153.243 38.7058 153.243 37.9631ZM155.005 37.7441V37.9631C155.005 38.4773 155.065 38.9629 155.186 39.4199C155.306 39.8706 155.487 40.2705 155.728 40.6196C155.976 40.9688 156.284 41.2449 156.652 41.448C157.02 41.6448 157.448 41.7432 157.937 41.7432C158.42 41.7432 158.842 41.6448 159.204 41.448C159.572 41.2449 159.876 40.9688 160.118 40.6196C160.359 40.2705 160.54 39.8706 160.66 39.4199C160.787 38.9629 160.851 38.4773 160.851 37.9631V37.7441C160.851 37.2363 160.787 36.7571 160.66 36.3064C160.54 35.8494 160.356 35.4463 160.108 35.0972C159.867 34.7417 159.562 34.4624 159.194 34.2593C158.832 34.0562 158.407 33.9546 157.918 33.9546C157.436 33.9546 157.01 34.0562 156.642 34.2593C156.281 34.4624 155.976 34.7417 155.728 35.0972C155.487 35.4463 155.306 35.8494 155.186 36.3064C155.065 36.7571 155.005 37.2363 155.005 37.7441ZM169.144 32.6978V34.0498H163.574V32.6978H169.144ZM165.459 30.1936H167.221V40.4482C167.221 40.7974 167.275 41.0608 167.383 41.2385C167.49 41.4163 167.63 41.5337 167.802 41.5908C167.973 41.6479 168.157 41.6765 168.354 41.6765C168.5 41.6765 168.652 41.6638 168.811 41.6384C168.976 41.6067 169.1 41.5813 169.182 41.5623L169.192 43C169.052 43.0444 168.868 43.0857 168.639 43.1238C168.417 43.1682 168.147 43.1904 167.83 43.1904C167.398 43.1904 167.002 43.1047 166.64 42.9333C166.278 42.762 165.989 42.4763 165.773 42.0764C165.564 41.6702 165.459 41.1243 165.459 40.4387V30.1936ZM175.485 43.1904C174.768 43.1904 174.117 43.0698 173.533 42.8286C172.956 42.5811 172.458 42.2351 172.039 41.7908C171.626 41.3464 171.309 40.8196 171.086 40.2102C170.864 39.6008 170.753 38.9343 170.753 38.2107V37.8108C170.753 36.9729 170.877 36.2271 171.125 35.5732C171.372 34.9131 171.708 34.3545 172.134 33.8975C172.559 33.4404 173.042 33.0945 173.581 32.8596C174.121 32.6248 174.679 32.5073 175.257 32.5073C175.993 32.5073 176.628 32.6343 177.161 32.8882C177.701 33.1421 178.142 33.4976 178.485 33.9546C178.827 34.4053 179.081 34.9385 179.246 35.5542C179.411 36.1636 179.494 36.8301 179.494 37.5537V38.344H171.801V36.9062H177.732V36.7729C177.707 36.3159 177.612 35.8716 177.447 35.4399C177.288 35.0083 177.034 34.6528 176.685 34.3735C176.336 34.0942 175.86 33.9546 175.257 33.9546C174.857 33.9546 174.489 34.0403 174.152 34.2117C173.816 34.3767 173.527 34.6243 173.286 34.9543C173.045 35.2844 172.857 35.6875 172.724 36.1636C172.591 36.6396 172.524 37.1887 172.524 37.8108V38.2107C172.524 38.6995 172.591 39.1597 172.724 39.5913C172.864 40.0166 173.064 40.3911 173.324 40.7148C173.591 41.0386 173.911 41.2925 174.286 41.4766C174.667 41.6606 175.098 41.7527 175.581 41.7527C176.203 41.7527 176.729 41.6257 177.161 41.3718C177.593 41.1179 177.97 40.7783 178.294 40.353L179.361 41.2004C179.138 41.5369 178.856 41.8574 178.513 42.1621C178.17 42.4668 177.748 42.7144 177.247 42.9048C176.752 43.0952 176.165 43.1904 175.485 43.1904ZM185.673 41.7432C186.092 41.7432 186.479 41.6575 186.835 41.4861C187.19 41.3147 187.482 41.0798 187.711 40.7815C187.939 40.4768 188.07 40.1309 188.101 39.7437H189.777C189.745 40.353 189.539 40.9211 189.158 41.448C188.784 41.9685 188.292 42.3906 187.682 42.7144C187.073 43.0317 186.403 43.1904 185.673 43.1904C184.899 43.1904 184.223 43.054 183.645 42.781C183.074 42.5081 182.598 42.1335 182.217 41.6575C181.843 41.1814 181.56 40.6355 181.37 40.0198C181.186 39.3977 181.094 38.7407 181.094 38.0488V37.6489C181.094 36.957 181.186 36.3032 181.37 35.6875C181.56 35.0654 181.843 34.5164 182.217 34.0403C182.598 33.5642 183.074 33.1897 183.645 32.9167C184.223 32.6438 184.899 32.5073 185.673 32.5073C186.479 32.5073 187.184 32.6724 187.787 33.0024C188.39 33.3262 188.863 33.7705 189.206 34.3354C189.555 34.894 189.745 35.5288 189.777 36.2397H188.101C188.07 35.8145 187.949 35.4304 187.74 35.0876C187.536 34.7449 187.257 34.4719 186.902 34.2688C186.552 34.0593 186.143 33.9546 185.673 33.9546C185.134 33.9546 184.68 34.0625 184.312 34.2783C183.95 34.4878 183.661 34.7734 183.445 35.1353C183.236 35.4907 183.083 35.8875 182.988 36.3254C182.899 36.7571 182.855 37.1982 182.855 37.6489V38.0488C182.855 38.4995 182.899 38.9438 182.988 39.3818C183.077 39.8198 183.226 40.2166 183.436 40.572C183.652 40.9275 183.94 41.2131 184.302 41.429C184.67 41.6384 185.127 41.7432 185.673 41.7432ZM196.071 32.6978V34.0498H190.501V32.6978H196.071ZM192.386 30.1936H194.147V40.4482C194.147 40.7974 194.201 41.0608 194.309 41.2385C194.417 41.4163 194.557 41.5337 194.728 41.5908C194.9 41.6479 195.084 41.6765 195.281 41.6765C195.427 41.6765 195.579 41.6638 195.738 41.6384C195.903 41.6067 196.026 41.5813 196.109 41.5623L196.118 43C195.979 43.0444 195.795 43.0857 195.566 43.1238C195.344 43.1682 195.074 43.1904 194.757 43.1904C194.325 43.1904 193.928 43.1047 193.567 42.9333C193.205 42.762 192.916 42.4763 192.7 42.0764C192.491 41.6702 192.386 41.1243 192.386 40.4387V30.1936ZM202.412 43.1904C201.695 43.1904 201.044 43.0698 200.46 42.8286C199.883 42.5811 199.384 42.2351 198.965 41.7908C198.553 41.3464 198.235 40.8196 198.013 40.2102C197.791 39.6008 197.68 38.9343 197.68 38.2107V37.8108C197.68 36.9729 197.804 36.2271 198.051 35.5732C198.299 34.9131 198.635 34.3545 199.061 33.8975C199.486 33.4404 199.968 33.0945 200.508 32.8596C201.047 32.6248 201.606 32.5073 202.184 32.5073C202.92 32.5073 203.555 32.6343 204.088 32.8882C204.627 33.1421 205.069 33.4976 205.411 33.9546C205.754 34.4053 206.008 34.9385 206.173 35.5542C206.338 36.1636 206.421 36.8301 206.421 37.5537V38.344H198.727V36.9062H204.659V36.7729C204.634 36.3159 204.539 35.8716 204.374 35.4399C204.215 35.0083 203.961 34.6528 203.612 34.3735C203.263 34.0942 202.787 33.9546 202.184 33.9546C201.784 33.9546 201.416 34.0403 201.079 34.2117C200.743 34.3767 200.454 34.6243 200.213 34.9543C199.971 35.2844 199.784 35.6875 199.651 36.1636C199.518 36.6396 199.451 37.1887 199.451 37.8108V38.2107C199.451 38.6995 199.518 39.1597 199.651 39.5913C199.791 40.0166 199.99 40.3911 200.251 40.7148C200.517 41.0386 200.838 41.2925 201.212 41.4766C201.593 41.6606 202.025 41.7527 202.507 41.7527C203.129 41.7527 203.656 41.6257 204.088 41.3718C204.52 41.1179 204.897 40.7783 205.221 40.353L206.287 41.2004C206.065 41.5369 205.783 41.8574 205.44 42.1621C205.097 42.4668 204.675 42.7144 204.174 42.9048C203.678 43.0952 203.091 43.1904 202.412 43.1904ZM214.971 41.0005V28.375H216.742V43H215.123L214.971 41.0005ZM208.039 37.9631V37.7632C208.039 36.9761 208.135 36.262 208.325 35.6208C208.522 34.9734 208.798 34.418 209.153 33.9546C209.515 33.4912 209.944 33.1357 210.439 32.8882C210.94 32.6343 211.499 32.5073 212.115 32.5073C212.762 32.5073 213.327 32.6216 213.809 32.8501C214.298 33.0723 214.711 33.3992 215.047 33.8308C215.39 34.2561 215.66 34.7703 215.856 35.3733C216.053 35.9763 216.19 36.6587 216.266 37.4204V38.2964C216.196 39.0518 216.06 39.731 215.856 40.334C215.66 40.937 215.39 41.4512 215.047 41.8765C214.711 42.3018 214.298 42.6287 213.809 42.8572C213.321 43.0793 212.749 43.1904 212.095 43.1904C211.492 43.1904 210.94 43.0603 210.439 42.8C209.944 42.5398 209.515 42.1748 209.153 41.7051C208.798 41.2354 208.522 40.6831 208.325 40.0483C208.135 39.4072 208.039 38.7122 208.039 37.9631ZM209.81 37.7632V37.9631C209.81 38.4773 209.861 38.9597 209.963 39.4104C210.071 39.8611 210.236 40.2578 210.458 40.6006C210.68 40.9434 210.962 41.2131 211.305 41.4099C211.648 41.6003 212.057 41.6956 212.533 41.6956C213.117 41.6956 213.597 41.5718 213.971 41.3242C214.352 41.0767 214.657 40.7498 214.885 40.3435C215.114 39.9373 215.292 39.4961 215.418 39.02V36.7253C215.342 36.3762 215.231 36.0398 215.085 35.7161C214.946 35.386 214.761 35.094 214.533 34.8401C214.311 34.5798 214.035 34.3735 213.705 34.2212C213.381 34.0688 212.997 33.9927 212.552 33.9927C212.07 33.9927 211.654 34.0942 211.305 34.2974C210.962 34.4941 210.68 34.7671 210.458 35.1162C210.236 35.459 210.071 35.8589 209.963 36.3159C209.861 36.7666 209.81 37.249 209.81 37.7632ZM224.312 28.375H226.083V41.0005L225.93 43H224.312V28.375ZM233.043 37.7632V37.9631C233.043 38.7122 232.954 39.4072 232.776 40.0483C232.598 40.6831 232.338 41.2354 231.995 41.7051C231.653 42.1748 231.234 42.5398 230.739 42.8C230.243 43.0603 229.675 43.1904 229.034 43.1904C228.38 43.1904 227.806 43.0793 227.311 42.8572C226.822 42.6287 226.409 42.3018 226.073 41.8765C225.737 41.4512 225.467 40.937 225.264 40.334C225.067 39.731 224.93 39.0518 224.854 38.2964V37.4204C224.93 36.6587 225.067 35.9763 225.264 35.3733C225.467 34.7703 225.737 34.2561 226.073 33.8308C226.409 33.3992 226.822 33.0723 227.311 32.8501C227.8 32.6216 228.368 32.5073 229.015 32.5073C229.663 32.5073 230.237 32.6343 230.739 32.8882C231.24 33.1357 231.659 33.4912 231.995 33.9546C232.338 34.418 232.598 34.9734 232.776 35.6208C232.954 36.262 233.043 36.9761 233.043 37.7632ZM231.272 37.9631V37.7632C231.272 37.249 231.224 36.7666 231.129 36.3159C231.034 35.8589 230.881 35.459 230.672 35.1162C230.462 34.7671 230.186 34.4941 229.844 34.2974C229.501 34.0942 229.079 33.9927 228.577 33.9927C228.133 33.9927 227.746 34.0688 227.416 34.2212C227.092 34.3735 226.816 34.5798 226.587 34.8401C226.359 35.094 226.171 35.386 226.025 35.7161C225.886 36.0398 225.781 36.3762 225.711 36.7253V39.02C225.813 39.4644 225.978 39.8928 226.206 40.3054C226.441 40.7117 226.752 41.0449 227.139 41.3052C227.533 41.5654 228.019 41.6956 228.596 41.6956C229.072 41.6956 229.479 41.6003 229.815 41.4099C230.158 41.2131 230.434 40.9434 230.643 40.6006C230.859 40.2578 231.018 39.8611 231.119 39.4104C231.221 38.9597 231.272 38.4773 231.272 37.9631ZM238.051 41.9336L240.917 32.6978H242.802L238.67 44.5901C238.575 44.844 238.448 45.1169 238.289 45.4089C238.137 45.7073 237.94 45.9897 237.699 46.2563C237.458 46.5229 237.166 46.7388 236.823 46.9038C236.486 47.0752 236.083 47.1609 235.614 47.1609C235.474 47.1609 235.296 47.1418 235.08 47.1038C234.865 47.0657 234.712 47.0339 234.623 47.0085L234.614 45.5803C234.665 45.5867 234.744 45.593 234.852 45.5994C234.966 45.6121 235.045 45.6184 235.09 45.6184C235.49 45.6184 235.829 45.5645 236.109 45.4565C236.388 45.355 236.623 45.1804 236.813 44.9329C237.01 44.6917 237.178 44.3584 237.318 43.9331L238.051 41.9336ZM235.947 32.6978L238.622 40.6958L239.079 42.5525L237.813 43.2L234.023 32.6978H235.947ZM251.372 34.6592V43H249.077V32.6978H251.267L251.372 34.6592ZM254.523 32.6311L254.504 34.7639C254.365 34.7385 254.212 34.7195 254.047 34.7068C253.888 34.6941 253.73 34.6877 253.571 34.6877C253.177 34.6877 252.832 34.7449 252.533 34.8591C252.235 34.967 251.984 35.1257 251.781 35.3352C251.584 35.5383 251.432 35.7859 251.324 36.0779C251.216 36.3699 251.153 36.6968 251.134 37.0586L250.61 37.0967C250.61 36.4492 250.673 35.8494 250.8 35.2971C250.927 34.7449 251.118 34.2593 251.372 33.8403C251.632 33.4214 251.956 33.0945 252.343 32.8596C252.736 32.6248 253.19 32.5073 253.704 32.5073C253.844 32.5073 253.993 32.52 254.152 32.5454C254.317 32.5708 254.441 32.5994 254.523 32.6311ZM260.312 43.1904C259.551 43.1904 258.862 43.0667 258.246 42.8191C257.637 42.5652 257.116 42.2129 256.685 41.7622C256.259 41.3115 255.932 40.7815 255.704 40.1721C255.475 39.5627 255.361 38.9058 255.361 38.2012V37.8203C255.361 37.0142 255.479 36.2842 255.713 35.6304C255.948 34.9766 256.275 34.418 256.694 33.9546C257.113 33.4849 257.608 33.1262 258.179 32.8787C258.751 32.6311 259.37 32.5073 260.036 32.5073C260.772 32.5073 261.417 32.6311 261.969 32.8787C262.521 33.1262 262.978 33.4753 263.34 33.926C263.708 34.3704 263.981 34.9004 264.159 35.5161C264.343 36.1318 264.435 36.811 264.435 37.5537V38.5344H256.475V36.8872H262.169V36.7063C262.156 36.2937 262.074 35.9065 261.921 35.5447C261.775 35.1829 261.55 34.8909 261.245 34.6687C260.941 34.4465 260.534 34.3354 260.027 34.3354C259.646 34.3354 259.306 34.418 259.008 34.583C258.716 34.7417 258.471 34.9734 258.275 35.2781C258.078 35.5828 257.926 35.9509 257.818 36.3826C257.716 36.8079 257.665 37.2871 257.665 37.8203V38.2012C257.665 38.6519 257.726 39.0708 257.846 39.458C257.973 39.8389 258.157 40.1721 258.398 40.4578C258.64 40.7434 258.932 40.9688 259.274 41.1338C259.617 41.2925 260.008 41.3718 260.446 41.3718C260.998 41.3718 261.49 41.2607 261.921 41.0386C262.353 40.8164 262.728 40.5022 263.045 40.0959L264.254 41.2671C264.032 41.5908 263.743 41.9019 263.388 42.2002C263.032 42.4922 262.597 42.7302 262.083 42.9143C261.575 43.0984 260.985 43.1904 260.312 43.1904ZM274.642 38.4868H277.022C276.946 39.3945 276.692 40.2039 276.261 40.9148C275.829 41.6194 275.223 42.1748 274.442 42.5811C273.661 42.9873 272.712 43.1904 271.595 43.1904C270.738 43.1904 269.967 43.0381 269.281 42.7334C268.596 42.4224 268.009 41.9844 267.52 41.4194C267.031 40.8481 266.657 40.1594 266.396 39.3533C266.143 38.5471 266.016 37.6458 266.016 36.6492V35.4971C266.016 34.5005 266.146 33.5991 266.406 32.793C266.673 31.9868 267.053 31.2981 267.549 30.7268C268.044 30.1492 268.637 29.708 269.329 29.4033C270.027 29.0986 270.811 28.9463 271.681 28.9463C272.785 28.9463 273.719 29.1494 274.48 29.5557C275.242 29.9619 275.832 30.5237 276.251 31.241C276.677 31.9583 276.937 32.7803 277.032 33.707H274.652C274.588 33.1104 274.448 32.5994 274.233 32.1741C274.023 31.7488 273.712 31.425 273.3 31.2029C272.887 30.9744 272.347 30.8601 271.681 30.8601C271.135 30.8601 270.659 30.9617 270.253 31.1648C269.846 31.3679 269.507 31.6663 269.234 32.0598C268.961 32.4534 268.755 32.939 268.615 33.5166C268.482 34.0879 268.415 34.7417 268.415 35.478V36.6492C268.415 37.3474 268.475 37.9822 268.596 38.5535C268.723 39.1184 268.913 39.604 269.167 40.0103C269.427 40.4165 269.758 40.7307 270.157 40.9529C270.557 41.175 271.037 41.2861 271.595 41.2861C272.274 41.2861 272.823 41.1782 273.242 40.9624C273.668 40.7466 273.988 40.4324 274.204 40.0198C274.426 39.6008 274.572 39.0898 274.642 38.4868ZM284.592 30.9839L280.45 43H277.946L283.164 29.1367H284.763L284.592 30.9839ZM288.058 43L283.906 30.9839L283.726 29.1367H285.335L290.572 43H288.058ZM287.858 37.8584V39.7532H280.317V37.8584H287.858ZM297.389 37.8298H293.78V35.9351H297.389C298.017 35.9351 298.525 35.8335 298.912 35.6304C299.3 35.4272 299.582 35.1479 299.76 34.7925C299.944 34.4307 300.036 34.0181 300.036 33.5547C300.036 33.1167 299.944 32.7073 299.76 32.3264C299.582 31.9392 299.3 31.6282 298.912 31.3933C298.525 31.1584 298.017 31.041 297.389 31.041H294.513V43H292.124V29.1367H297.389C298.462 29.1367 299.373 29.3271 300.122 29.708C300.877 30.0825 301.451 30.603 301.845 31.2695C302.239 31.9297 302.435 32.6851 302.435 33.5356C302.435 34.4307 302.239 35.1987 301.845 35.8398C301.451 36.481 300.877 36.9729 300.122 37.3157C299.373 37.6584 298.462 37.8298 297.389 37.8298ZM310.281 29.1367V43H307.91V29.1367H310.281ZM314.632 29.1367V31.041H303.597V29.1367H314.632ZM324.382 38.4868H326.763C326.687 39.3945 326.433 40.2039 326.001 40.9148C325.569 41.6194 324.963 42.1748 324.182 42.5811C323.402 42.9873 322.453 43.1904 321.335 43.1904C320.479 43.1904 319.707 43.0381 319.022 42.7334C318.336 42.4224 317.749 41.9844 317.26 41.4194C316.771 40.8481 316.397 40.1594 316.137 39.3533C315.883 38.5471 315.756 37.6458 315.756 36.6492V35.4971C315.756 34.5005 315.886 33.5991 316.146 32.793C316.413 31.9868 316.794 31.2981 317.289 30.7268C317.784 30.1492 318.377 29.708 319.069 29.4033C319.768 29.0986 320.552 28.9463 321.421 28.9463C322.526 28.9463 323.459 29.1494 324.22 29.5557C324.982 29.9619 325.573 30.5237 325.991 31.241C326.417 31.9583 326.677 32.7803 326.772 33.707H324.392C324.328 33.1104 324.189 32.5994 323.973 32.1741C323.763 31.7488 323.452 31.425 323.04 31.2029C322.627 30.9744 322.088 30.8601 321.421 30.8601C320.875 30.8601 320.399 30.9617 319.993 31.1648C319.587 31.3679 319.247 31.6663 318.974 32.0598C318.701 32.4534 318.495 32.939 318.355 33.5166C318.222 34.0879 318.155 34.7417 318.155 35.478V36.6492C318.155 37.3474 318.216 37.9822 318.336 38.5535C318.463 39.1184 318.654 39.604 318.907 40.0103C319.168 40.4165 319.498 40.7307 319.898 40.9529C320.298 41.175 320.777 41.2861 321.335 41.2861C322.015 41.2861 322.564 41.1782 322.983 40.9624C323.408 40.7466 323.729 40.4324 323.944 40.0198C324.167 39.6008 324.312 39.0898 324.382 38.4868ZM338.093 34.9258V36.8206H330.733V34.9258H338.093ZM331.323 29.1367V43H328.934V29.1367H331.323ZM339.931 29.1367V43H337.551V29.1367H339.931ZM348.348 30.9839L344.206 43H341.702L346.92 29.1367H348.519L348.348 30.9839ZM351.814 43L347.662 30.9839L347.481 29.1367H349.091L354.327 43H351.814ZM351.614 37.8584V39.7532H344.073V37.8584H351.614Z" fill="white"/>
<path d="M140.171 66.8179H137.322V65.668H140.171C140.723 65.668 141.169 65.5801 141.511 65.4043C141.853 65.2285 142.102 64.9844 142.258 64.6719C142.419 64.3594 142.5 64.0029 142.5 63.6025C142.5 63.2363 142.419 62.8921 142.258 62.5698C142.102 62.2476 141.853 61.9888 141.511 61.7935C141.169 61.5933 140.723 61.4932 140.171 61.4932H137.651V71H136.238V60.3359H140.171C140.977 60.3359 141.658 60.4751 142.214 60.7534C142.771 61.0317 143.193 61.4175 143.481 61.9106C143.77 62.3989 143.914 62.958 143.914 63.5879C143.914 64.2715 143.77 64.855 143.481 65.3384C143.193 65.8218 142.771 66.1904 142.214 66.4443C141.658 66.6934 140.977 66.8179 140.171 66.8179ZM146.701 64.3203V71H145.346V63.0752H146.664L146.701 64.3203ZM149.176 63.0312L149.169 64.291C149.057 64.2666 148.949 64.252 148.847 64.2471C148.749 64.2373 148.637 64.2324 148.51 64.2324C148.197 64.2324 147.921 64.2812 147.682 64.3789C147.443 64.4766 147.24 64.6133 147.074 64.7891C146.908 64.9648 146.776 65.1748 146.679 65.4189C146.586 65.6582 146.525 65.9219 146.496 66.21L146.115 66.4297C146.115 65.9512 146.161 65.502 146.254 65.082C146.351 64.6621 146.5 64.291 146.701 63.9688C146.901 63.6416 147.155 63.3877 147.462 63.207C147.775 63.0215 148.146 62.9287 148.576 62.9287C148.673 62.9287 148.786 62.9409 148.913 62.9653C149.039 62.9849 149.127 63.0068 149.176 63.0312ZM151.751 63.0752V71H150.388V63.0752H151.751ZM150.286 60.9731C150.286 60.7534 150.352 60.5679 150.484 60.4165C150.62 60.2651 150.821 60.1895 151.084 60.1895C151.343 60.1895 151.541 60.2651 151.678 60.4165C151.819 60.5679 151.89 60.7534 151.89 60.9731C151.89 61.1831 151.819 61.3638 151.678 61.5151C151.541 61.6616 151.343 61.7349 151.084 61.7349C150.821 61.7349 150.62 61.6616 150.484 61.5151C150.352 61.3638 150.286 61.1831 150.286 60.9731ZM156.186 69.7769L158.354 63.0752H159.738L156.889 71H155.981L156.186 69.7769ZM154.377 63.0752L156.611 69.8135L156.764 71H155.856L152.985 63.0752H154.377ZM165.447 69.645V65.5654C165.447 65.2529 165.384 64.9819 165.257 64.7524C165.135 64.5181 164.949 64.3374 164.7 64.2104C164.451 64.0835 164.144 64.02 163.777 64.02C163.436 64.02 163.135 64.0786 162.877 64.1958C162.623 64.313 162.422 64.4668 162.276 64.6572C162.134 64.8477 162.064 65.0527 162.064 65.2725H160.709C160.709 64.9893 160.782 64.7085 160.928 64.4302C161.075 64.1519 161.285 63.9004 161.558 63.6758C161.837 63.4463 162.169 63.2656 162.554 63.1338C162.945 62.9971 163.379 62.9287 163.858 62.9287C164.434 62.9287 164.942 63.0264 165.381 63.2217C165.826 63.417 166.172 63.7124 166.421 64.1079C166.675 64.4985 166.802 64.9893 166.802 65.5801V69.2715C166.802 69.5352 166.824 69.8159 166.868 70.1138C166.917 70.4116 166.988 70.668 167.081 70.8828V71H165.667C165.599 70.8438 165.545 70.6362 165.506 70.3774C165.467 70.1138 165.447 69.8696 165.447 69.645ZM165.682 66.1953L165.696 67.1475H164.327C163.941 67.1475 163.597 67.1792 163.294 67.2427C162.991 67.3013 162.737 67.3916 162.532 67.5137C162.327 67.6357 162.171 67.7896 162.064 67.9751C161.956 68.1558 161.902 68.3682 161.902 68.6123C161.902 68.8613 161.959 69.0884 162.071 69.2935C162.183 69.4985 162.352 69.6621 162.576 69.7842C162.806 69.9014 163.087 69.96 163.419 69.96C163.834 69.96 164.2 69.8721 164.517 69.6963C164.835 69.5205 165.086 69.3057 165.272 69.0518C165.462 68.7979 165.565 68.5513 165.579 68.312L166.158 68.9639C166.124 69.1689 166.031 69.396 165.879 69.645C165.728 69.894 165.525 70.1333 165.272 70.3628C165.023 70.5874 164.725 70.7754 164.378 70.9268C164.036 71.0732 163.65 71.1465 163.221 71.1465C162.684 71.1465 162.212 71.0415 161.807 70.8315C161.407 70.6216 161.094 70.3408 160.87 69.9893C160.65 69.6328 160.54 69.2349 160.54 68.7954C160.54 68.3706 160.623 67.9971 160.789 67.6748C160.955 67.3477 161.194 67.0767 161.507 66.8618C161.819 66.6421 162.195 66.4761 162.635 66.3638C163.074 66.2515 163.565 66.1953 164.107 66.1953H165.682ZM171.955 70.0332C172.277 70.0332 172.575 69.9673 172.849 69.8354C173.122 69.7036 173.347 69.5229 173.522 69.2935C173.698 69.0591 173.798 68.793 173.823 68.4951H175.112C175.087 68.9639 174.929 69.4009 174.636 69.8062C174.348 70.2065 173.969 70.5312 173.5 70.7803C173.032 71.0244 172.517 71.1465 171.955 71.1465C171.359 71.1465 170.839 71.0415 170.395 70.8315C169.956 70.6216 169.589 70.3335 169.296 69.9673C169.008 69.6011 168.791 69.1812 168.645 68.7075C168.503 68.229 168.432 67.7236 168.432 67.1914V66.8838C168.432 66.3516 168.503 65.8486 168.645 65.375C168.791 64.8965 169.008 64.4741 169.296 64.1079C169.589 63.7417 169.956 63.4536 170.395 63.2437C170.839 63.0337 171.359 62.9287 171.955 62.9287C172.575 62.9287 173.117 63.0557 173.581 63.3096C174.045 63.5586 174.409 63.9004 174.672 64.335C174.941 64.7646 175.087 65.2529 175.112 65.7998H173.823C173.798 65.4727 173.706 65.1772 173.544 64.9136C173.388 64.6499 173.173 64.4399 172.9 64.2837C172.631 64.1226 172.316 64.042 171.955 64.042C171.54 64.042 171.191 64.125 170.908 64.291C170.629 64.4521 170.407 64.6719 170.241 64.9502C170.08 65.2236 169.963 65.5288 169.89 65.8657C169.821 66.1978 169.787 66.5371 169.787 66.8838V67.1914C169.787 67.5381 169.821 67.8799 169.89 68.2168C169.958 68.5537 170.073 68.8589 170.234 69.1323C170.4 69.4058 170.622 69.6255 170.9 69.7915C171.184 69.9526 171.535 70.0332 171.955 70.0332ZM178.712 70.1797L180.916 63.0752H182.367L179.188 72.2231C179.115 72.4185 179.017 72.6284 178.895 72.853C178.778 73.0825 178.626 73.2998 178.441 73.5049C178.255 73.71 178.031 73.876 177.767 74.0029C177.508 74.1348 177.198 74.2007 176.837 74.2007C176.729 74.2007 176.593 74.186 176.427 74.1567C176.261 74.1274 176.143 74.103 176.075 74.0835L176.068 72.9849C176.107 72.9897 176.168 72.9946 176.251 72.9995C176.339 73.0093 176.4 73.0142 176.434 73.0142C176.742 73.0142 177.003 72.9727 177.218 72.8896C177.433 72.8115 177.613 72.6772 177.76 72.4868C177.911 72.3013 178.04 72.0449 178.148 71.7178L178.712 70.1797ZM177.093 63.0752L179.151 69.2275L179.503 70.6558L178.529 71.1538L175.614 63.0752H177.093ZM189.83 65.9097V67.0229H186.256V65.9097H189.83ZM198.429 60.3359V71H197.038V60.3359H198.429ZM201.857 60.3359V61.4932H193.617V60.3359H201.857ZM205.64 71.1465C205.088 71.1465 204.588 71.0537 204.139 70.8682C203.694 70.6777 203.311 70.4116 202.989 70.0698C202.671 69.728 202.427 69.3228 202.256 68.854C202.085 68.3853 202 67.8726 202 67.3159V67.0083C202 66.3638 202.095 65.79 202.286 65.2871C202.476 64.7793 202.735 64.3496 203.062 63.998C203.389 63.6465 203.76 63.3804 204.175 63.1997C204.59 63.019 205.02 62.9287 205.464 62.9287C206.031 62.9287 206.519 63.0264 206.929 63.2217C207.344 63.417 207.683 63.6904 207.947 64.042C208.211 64.3887 208.406 64.7988 208.533 65.2725C208.66 65.7412 208.724 66.2539 208.724 66.8105V67.4185H202.806V66.3125H207.369V66.21C207.349 65.8584 207.276 65.5166 207.149 65.1846C207.027 64.8525 206.831 64.5791 206.563 64.3643C206.294 64.1494 205.928 64.042 205.464 64.042C205.157 64.042 204.873 64.1079 204.615 64.2397C204.356 64.3667 204.134 64.5571 203.948 64.811C203.763 65.0649 203.619 65.375 203.516 65.7412C203.413 66.1074 203.362 66.5298 203.362 67.0083V67.3159C203.362 67.6919 203.413 68.0459 203.516 68.3779C203.623 68.7051 203.777 68.9932 203.977 69.2422C204.183 69.4912 204.429 69.6865 204.717 69.8281C205.01 69.9697 205.342 70.0405 205.713 70.0405C206.192 70.0405 206.597 69.9429 206.929 69.7476C207.261 69.5522 207.552 69.291 207.801 68.9639L208.621 69.6157C208.45 69.8745 208.233 70.1211 207.969 70.3555C207.705 70.5898 207.381 70.7803 206.995 70.9268C206.614 71.0732 206.162 71.1465 205.64 71.1465ZM211.511 64.3203V71H210.156V63.0752H211.474L211.511 64.3203ZM213.986 63.0312L213.979 64.291C213.867 64.2666 213.759 64.252 213.657 64.2471C213.559 64.2373 213.447 64.2324 213.32 64.2324C213.007 64.2324 212.731 64.2812 212.492 64.3789C212.253 64.4766 212.05 64.6133 211.884 64.7891C211.718 64.9648 211.586 65.1748 211.489 65.4189C211.396 65.6582 211.335 65.9219 211.305 66.21L210.925 66.4297C210.925 65.9512 210.971 65.502 211.064 65.082C211.161 64.6621 211.31 64.291 211.511 63.9688C211.711 63.6416 211.965 63.3877 212.272 63.207C212.585 63.0215 212.956 62.9287 213.386 62.9287C213.483 62.9287 213.596 62.9409 213.722 62.9653C213.849 62.9849 213.937 63.0068 213.986 63.0312ZM216.436 64.6499V71H215.074V63.0752H216.363L216.436 64.6499ZM216.158 66.7373L215.528 66.7153C215.533 66.1733 215.604 65.6729 215.74 65.2139C215.877 64.75 216.08 64.3472 216.348 64.0054C216.617 63.6636 216.951 63.3999 217.352 63.2144C217.752 63.0239 218.216 62.9287 218.743 62.9287C219.114 62.9287 219.456 62.9824 219.769 63.0898C220.081 63.1924 220.352 63.356 220.582 63.5806C220.811 63.8052 220.989 64.0933 221.116 64.4448C221.243 64.7964 221.307 65.2212 221.307 65.7192V71H219.952V65.7852C219.952 65.3701 219.881 65.0381 219.739 64.7891C219.603 64.54 219.407 64.3594 219.154 64.2471C218.9 64.1299 218.602 64.0713 218.26 64.0713C217.86 64.0713 217.525 64.1421 217.257 64.2837C216.988 64.4253 216.773 64.6206 216.612 64.8696C216.451 65.1187 216.334 65.4043 216.26 65.7266C216.192 66.0439 216.158 66.3809 216.158 66.7373ZM221.292 65.9902L220.384 66.2686C220.389 65.834 220.46 65.4165 220.596 65.0161C220.738 64.6157 220.941 64.2593 221.204 63.9468C221.473 63.6343 221.802 63.3877 222.193 63.207C222.584 63.0215 223.03 62.9287 223.533 62.9287C223.958 62.9287 224.334 62.9849 224.661 63.0972C224.993 63.2095 225.272 63.3828 225.496 63.6172C225.726 63.8467 225.899 64.1421 226.016 64.5034C226.133 64.8647 226.192 65.2944 226.192 65.7925V71H224.83V65.7778C224.83 65.3335 224.759 64.9893 224.617 64.7451C224.481 64.4961 224.285 64.3228 224.031 64.2251C223.782 64.1226 223.485 64.0713 223.138 64.0713C222.84 64.0713 222.576 64.1226 222.347 64.2251C222.117 64.3276 221.925 64.4692 221.768 64.6499C221.612 64.8257 221.492 65.0283 221.409 65.2578C221.331 65.4873 221.292 65.7314 221.292 65.9902ZM232.707 68.8979C232.707 68.7026 232.663 68.522 232.575 68.356C232.492 68.1851 232.319 68.0312 232.055 67.8945C231.796 67.7529 231.406 67.6309 230.883 67.5283C230.444 67.4355 230.046 67.3257 229.69 67.1987C229.338 67.0718 229.038 66.918 228.789 66.7373C228.545 66.5566 228.357 66.3442 228.225 66.1001C228.093 65.856 228.027 65.5703 228.027 65.2432C228.027 64.9307 228.095 64.6353 228.232 64.3569C228.374 64.0786 228.571 63.832 228.825 63.6172C229.084 63.4023 229.394 63.2339 229.755 63.1118C230.117 62.9897 230.52 62.9287 230.964 62.9287C231.599 62.9287 232.141 63.041 232.59 63.2656C233.039 63.4902 233.383 63.7905 233.623 64.1665C233.862 64.5376 233.982 64.9502 233.982 65.4043H232.627C232.627 65.1846 232.561 64.9722 232.429 64.7671C232.302 64.5571 232.114 64.3838 231.865 64.2471C231.621 64.1104 231.32 64.042 230.964 64.042C230.588 64.042 230.283 64.1006 230.048 64.2178C229.819 64.3301 229.65 64.4741 229.543 64.6499C229.441 64.8257 229.389 65.0112 229.389 65.2065C229.389 65.353 229.414 65.4849 229.463 65.6021C229.516 65.7144 229.609 65.8193 229.741 65.917C229.873 66.0098 230.058 66.0977 230.297 66.1807C230.537 66.2637 230.842 66.3467 231.213 66.4297C231.862 66.5762 232.397 66.752 232.817 66.957C233.237 67.1621 233.549 67.4136 233.754 67.7114C233.96 68.0093 234.062 68.3706 234.062 68.7954C234.062 69.1421 233.989 69.4595 233.842 69.7476C233.701 70.0356 233.493 70.2847 233.22 70.4946C232.951 70.6997 232.629 70.8608 232.253 70.978C231.882 71.0903 231.464 71.1465 231.001 71.1465C230.302 71.1465 229.712 71.022 229.228 70.7729C228.745 70.5239 228.379 70.2017 228.129 69.8062C227.88 69.4106 227.756 68.9932 227.756 68.5537H229.118C229.138 68.9248 229.245 69.2202 229.441 69.4399C229.636 69.6548 229.875 69.8086 230.158 69.9014C230.442 69.9893 230.722 70.0332 231.001 70.0332C231.372 70.0332 231.682 69.9844 231.931 69.8867C232.185 69.7891 232.378 69.6548 232.509 69.4839C232.641 69.313 232.707 69.1177 232.707 68.8979Z" fill="white"/>
</g>
</g>
<defs>
<filter id="filter0_d_889_36765" x="0" y="0" width="396" height="102" filterUnits="userSpaceOnUse" color-interpolation-filters="sRGB">
<feFlood flood-opacity="0" result="BackgroundImageFix"/>
<feColorMatrix in="SourceAlpha" type="matrix" values="0 0 0 0 0 0 0 0 0 0 0 0 0 0 0 0 0 0 127 0" result="hardAlpha"/>
<feOffset/>
<feGaussianBlur stdDeviation="3"/>
<feColorMatrix type="matrix" values="0 0 0 0 0 0 0 0 0 0 0 0 0 0 0 0 0 0 0.12 0"/>
<feBlend mode="normal" in2="BackgroundImageFix" result="effect1_dropShadow_889_36765"/>
<feBlend mode="normal" in="SourceGraphic" in2="effect1_dropShadow_889_36765" result="shape"/>
</filter>
<filter id="filter1_d_889_36765" x="19.25" y="11.75" width="48.1211" height="72.269" filterUnits="userSpaceOnUse" color-interpolation-filters="sRGB">
<feFlood flood-opacity="0" result="BackgroundImageFix"/>
<feColorMatrix in="SourceAlpha" type="matrix" values="0 0 0 0 0 0 0 0 0 0 0 0 0 0 0 0 0 0 127 0" result="hardAlpha"/>
<feOffset/>
<feGaussianBlur stdDeviation="4.5"/>
<feColorMatrix type="matrix" values="0 0 0 0 0 0 0 0 0 0 0 0 0 0 0 0 0 0 0.24 0"/>
<feBlend mode="normal" in2="BackgroundImageFix" result="effect1_dropShadow_889_36765"/>
<feBlend mode="normal" in="SourceGraphic" in2="effect1_dropShadow_889_36765" result="shape"/>
</filter>
<filter id="filter2_d_889_36765" x="19.2578" y="42.1299" width="72.2695" height="48.1191" filterUnits="userSpaceOnUse" color-interpolation-filters="sRGB">
<feFlood flood-opacity="0" result="BackgroundImageFix"/>
<feColorMatrix in="SourceAlpha" type="matrix" values="0 0 0 0 0 0 0 0 0 0 0 0 0 0 0 0 0 0 127 0" result="hardAlpha"/>
<feOffset/>
<feGaussianBlur stdDeviation="4.5"/>
<feColorMatrix type="matrix" values="0 0 0 0 0 0 0 0 0 0 0 0 0 0 0 0 0 0 0.24 0"/>
<feBlend mode="normal" in2="BackgroundImageFix" result="effect1_dropShadow_889_36765"/>
<feBlend mode="normal" in="SourceGraphic" in2="effect1_dropShadow_889_36765" result="shape"/>
</filter>
<clipPath id="clip0_889_36765">
<rect x="6" y="6" width="384" height="90" rx="4.5" fill="white"/>
</clipPath>
</defs>
</svg>
