<svg width="24" height="24" viewBox="0 0 24 24" fill="none" xmlns="http://www.w3.org/2000/svg">
<path d="M0 23.999L1.687 17.836C0.645998 16.032 0.0989998 13.987 0.0999998 11.89C0.103 5.33402 5.43799 -0.000976562 11.993 -0.000976562C15.174 2.34375e-05 18.16 1.23902 20.406 3.48702C22.6509 5.73502 23.8869 8.72302 23.8859 11.901C23.8829 18.458 18.548 23.793 11.993 23.793C10.003 23.792 8.04198 23.293 6.30499 22.345L0 23.999ZM6.59698 20.192C8.27298 21.187 9.87298 21.783 11.989 21.784C17.437 21.784 21.875 17.35 21.878 11.899C21.88 6.43702 17.463 2.00902 11.997 2.00702C6.54498 2.00702 2.11 6.44102 2.108 11.891C2.107 14.116 2.75899 15.782 3.85399 17.525L2.85499 21.173L6.59698 20.192ZM17.984 14.728C17.91 14.604 17.712 14.53 17.414 14.381C17.117 14.232 15.656 13.513 15.383 13.414C15.111 13.315 14.913 13.265 14.714 13.563C14.516 13.86 13.946 14.53 13.773 14.728C13.6 14.926 13.426 14.951 13.129 14.802C12.832 14.653 11.874 14.34 10.739 13.327C9.85598 12.539 9.25898 11.566 9.08598 11.268C8.91298 10.971 9.06798 10.81 9.21598 10.662C9.34998 10.529 9.51298 10.315 9.66198 10.141C9.81298 9.96902 9.86198 9.84502 9.96198 9.64602C10.061 9.44802 10.012 9.27402 9.93698 9.12502C9.86198 8.97702 9.26798 7.51402 9.02098 6.91902C8.77898 6.34002 8.53398 6.41802 8.35198 6.40902L7.78198 6.39902C7.58398 6.39902 7.26198 6.47302 6.98998 6.77102C6.71798 7.06902 5.94999 7.78702 5.94999 9.25002C5.94999 10.713 7.01498 12.126 7.16298 12.324C7.31198 12.522 9.25798 15.524 12.239 16.811C12.948 17.117 13.502 17.3 13.933 17.437C14.645 17.663 15.293 17.631 15.805 17.555C16.376 17.47 17.563 16.836 17.811 16.142C18.059 15.447 18.059 14.852 17.984 14.728Z" fill="#25D366"/>
</svg>
