<svg width="44" height="16" viewBox="0 0 44 16" fill="none" xmlns="http://www.w3.org/2000/svg">
<path d="M40.1632 12.1693H38.8796C38.5944 12.1693 38.4161 11.9749 38.4161 11.7029C38.4161 11.4309 38.63 11.2755 38.8796 11.2755H41.1972L41.732 9.99306H38.8796C37.703 9.99306 37.0255 10.7703 37.0255 11.7806C37.0255 12.8687 37.6673 13.4905 38.7013 13.4905H39.9849C40.2702 13.4905 40.4484 13.6848 40.4484 13.9568C40.4484 14.2289 40.2702 14.4232 39.9849 14.4232H37.2038V15.7056H39.9849C41.1615 15.7056 41.839 14.9672 41.839 13.8791C41.839 12.791 41.2328 12.1693 40.1632 12.1693ZM35.0645 12.1693H33.7809C33.4957 12.1693 33.3174 11.9749 33.3174 11.7029C33.3174 11.4309 33.5313 11.2755 33.7809 11.2755H36.0985L36.6333 9.99306H33.7809C32.6043 9.99306 31.9269 10.7703 31.9269 11.7806C31.9269 12.8687 32.5687 13.4905 33.6027 13.4905H34.8862C35.1715 13.4905 35.3498 13.6848 35.3498 13.9568C35.3498 14.2289 35.1715 14.4232 34.8862 14.4232H32.1051V15.7056H34.8862C36.0629 15.7056 36.7403 14.9672 36.7403 13.8791C36.7403 12.791 36.1342 12.1693 35.0645 12.1693ZM26.9352 15.6667H31.3207V14.3843H28.3257V13.4517H31.2494V12.1693H28.3257V11.2755H31.3207V9.99306H26.9352V15.6667ZM24.1897 12.4024H22.7279V11.2755H24.1897C24.6176 11.2755 24.8315 11.5475 24.8315 11.8584C24.7959 12.1693 24.5819 12.4024 24.1897 12.4024ZM26.2221 11.8195C26.2221 10.7314 25.509 9.99306 24.368 9.99306H21.373V15.6667H22.7635V13.6848H23.2627L24.8315 15.6667H26.5429L24.8315 13.6071C25.6872 13.4128 26.2221 12.7133 26.2221 11.8195ZM18.7345 12.519H17.237V11.2755H18.7345C19.1624 11.2755 19.3763 11.5475 19.3763 11.8972C19.3406 12.247 19.1267 12.519 18.7345 12.519ZM18.8771 9.99306H15.8464V15.6667H17.237V13.8014H18.8415C20.0181 13.8014 20.7312 12.9853 20.7312 11.8972C20.7312 10.7703 20.0181 9.99306 18.8771 9.99306ZM15.5968 9.99306H13.8141L12.4592 11.7029L11.1043 9.99306H9.2859L11.5678 12.791L9.25024 15.6667H11.033L12.4235 13.8791L13.8497 15.6667H15.6681L13.3149 12.7522L15.5968 9.99306ZM4.65074 15.6667H9.03631V14.3843H6.04128V13.4517H8.965V12.1693H6.04128V11.2755H9.03631V9.99306H4.65074V15.6667ZM42.5514 4.16416L40.4121 0.705566H38.665V6.37922H40.0555V2.76518L42.2305 6.37922H43.9062V0.705566H42.5514V4.16416ZM34.4577 3.96986L35.1708 2.06569L35.8839 3.96986H34.4577ZM34.315 0.705566L32.0331 6.37922H33.5663L33.9941 5.2134H36.4187L36.8822 6.37922H38.451L36.0978 0.705566H34.315ZM29.7512 3.58125V3.46467C29.7512 2.60974 30.179 2.02683 31.0704 2.02683H32.6392V0.705566H30.9635C29.252 0.705566 28.3606 1.91025 28.3606 3.46467V3.58125C28.3606 5.32998 29.359 6.34036 30.8922 6.34036H31.3557L31.9261 5.05796H31.1061C30.286 5.09682 29.7512 4.59163 29.7512 3.58125ZM26.257 0.705566V6.37922H27.6475V0.705566H26.257ZM23.4759 3.11492H22.014V1.98797H23.4759C23.9038 1.98797 24.1177 2.25999 24.1177 2.57088C24.1177 2.88176 23.9038 3.11492 23.4759 3.11492ZM25.5082 2.53202C25.5082 1.44392 24.7951 0.705566 23.6542 0.705566H20.6591V6.37922H22.0497V4.39732H22.5489L24.1177 6.37922H25.8648L24.1533 4.3196C25.0091 4.1253 25.5082 3.42581 25.5082 2.53202ZM15.3466 6.37922H19.7321V5.09682H16.7371V4.16416H19.6608V2.88176H16.7371V1.98797H19.7321V0.705566H15.3466V6.37922ZM10.9253 4.28074L9.7487 0.705566H7.57375V6.37922H8.92864V2.29885L10.2835 6.37922H11.5315L12.922 2.29885V6.37922H14.2769V0.705566H12.1019L10.9253 4.28074ZM3.36645 3.96986L4.07955 2.06569L4.79265 3.96986H3.36645ZM3.18818 0.705566L0.90625 6.37922H2.43942L2.86728 5.2134H5.29182L5.75534 6.37922H7.32416L5.00658 0.705566H3.18818Z" fill="#006FCF"/>
</svg>
