<svg width="45" height="19" viewBox="0 0 45 19" fill="none" xmlns="http://www.w3.org/2000/svg">
<path d="M8.83143 2.52677C9.34946 1.90191 9.70099 1.06292 9.60828 0.205566C8.84996 0.24193 7.92457 0.688031 7.38882 1.31337C6.90777 1.84889 6.48201 2.72301 6.593 3.54442C7.44425 3.61563 8.29472 3.13409 8.83143 2.52677Z" fill="#000008"/>
<path d="M9.59863 3.70482C8.36241 3.6338 7.31132 4.38143 6.72096 4.38143C6.13027 4.38143 5.22624 3.7406 4.24845 3.75787C2.9758 3.7759 1.79492 4.46983 1.14911 5.5735C-0.17923 7.78139 0.798559 11.0565 2.09029 12.8547C2.71759 13.7443 3.47359 14.7238 4.46973 14.6887C5.41092 14.653 5.77983 14.1009 6.92388 14.1009C8.0671 14.1009 8.39941 14.6887 9.39571 14.6708C10.4289 14.653 11.0748 13.7808 11.7021 12.8903C12.4218 11.8762 12.7163 10.8969 12.7349 10.8432C12.7163 10.8254 10.7426 10.0952 10.7243 7.90563C10.7056 6.07229 12.2739 5.20026 12.3477 5.14618C11.4621 3.88303 10.0784 3.7406 9.59863 3.70482Z" fill="#000008"/>
<path d="M20.3627 1.2237C23.0496 1.2237 24.9206 3.00982 24.9206 5.61028C24.9206 8.22002 23.0111 10.0154 20.2953 10.0154H17.3204V14.5778H15.171V1.22369L20.3627 1.2237ZM17.3204 8.27554H19.7866C21.658 8.27554 22.7231 7.30393 22.7231 5.61956C22.7231 3.93536 21.658 2.97287 19.7963 2.97287H17.3204V8.27554Z" fill="#000008"/>
<path d="M25.4821 11.8108C25.4821 10.1079 26.8352 9.06218 29.2345 8.93259L31.998 8.77533V8.02578C31.998 6.94297 31.2399 6.29518 29.9734 6.29518C28.7736 6.29518 28.025 6.85033 27.8429 7.72036H25.8853C26.0004 5.96191 27.5549 4.66632 30.05 4.66632C32.4971 4.66632 34.0612 5.91567 34.0612 7.86834V14.5778H32.0747V12.9768H32.0269C31.4416 14.0596 30.1652 14.7444 28.841 14.7444C26.8641 14.7444 25.4821 13.5598 25.4821 11.8108ZM31.998 10.9317V10.1636L29.5125 10.3115C28.2746 10.3949 27.5741 10.9224 27.5741 11.7553C27.5741 12.6066 28.3034 13.1619 29.4166 13.1619C30.8656 13.1619 31.998 12.1994 31.998 10.9317Z" fill="#000008"/>
<path d="M35.9366 18.1593V16.5398C36.0899 16.5767 36.4353 16.5767 36.6081 16.5767C37.5677 16.5767 38.086 16.1881 38.4025 15.1887C38.4025 15.1701 38.585 14.5964 38.585 14.5871L34.9385 4.84214H37.1838L39.7367 12.764H39.7748L42.3277 4.84214H44.5156L40.7344 15.0867C39.8711 17.4467 38.873 18.2056 36.781 18.2056C36.6081 18.2056 36.0899 18.187 35.9366 18.1593Z" fill="#000008"/>
</svg>
