<svg width="42" height="17" viewBox="0 0 42 17" fill="none" xmlns="http://www.w3.org/2000/svg">
<path d="M19.2571 12.7045H17.7519V1.05546H21.7421C22.7534 1.05546 23.6158 1.39074 24.3213 2.0613C25.0425 2.73187 25.4031 3.55058 25.4031 4.51743C25.4031 5.50768 25.0425 6.32639 24.3213 6.98916C23.6236 7.65192 22.7613 7.9794 21.7421 7.9794H19.2571V12.7045ZM19.2571 2.49015V6.55251H21.7735C22.3693 6.55251 22.871 6.34978 23.263 5.95213C23.6628 5.55447 23.8666 5.07103 23.8666 4.52523C23.8666 3.98722 23.6628 3.51159 23.263 3.11393C22.871 2.70068 22.3771 2.49795 21.7735 2.49795H19.2571V2.49015Z" fill="#3C4043"/>
<path d="M29.3385 4.47065C30.4517 4.47065 31.3297 4.76694 31.9725 5.35953C32.6153 5.95212 32.9368 6.76304 32.9368 7.79227V12.7045H31.5022V11.5973H31.4394C30.8201 12.5096 29.9891 12.9618 28.9543 12.9618C28.0685 12.9618 27.3316 12.7045 26.7358 12.1821C26.14 11.6597 25.8421 11.0125 25.8421 10.2328C25.8421 9.4063 26.1557 8.75133 26.7828 8.2679C27.41 7.77668 28.2488 7.53496 29.2914 7.53496C30.1851 7.53496 30.922 7.69871 31.4943 8.02619V7.68311C31.4943 7.1607 31.2905 6.72405 30.875 6.35758C30.4595 5.99111 29.9735 5.81177 29.4169 5.81177C28.5781 5.81177 27.9117 6.16265 27.4257 6.8722L26.1008 6.04569C26.8299 4.99306 27.9117 4.47065 29.3385 4.47065ZM27.3943 10.2562C27.3943 10.6461 27.5589 10.9735 27.896 11.2309C28.2253 11.4882 28.6173 11.6207 29.0641 11.6207C29.6991 11.6207 30.2635 11.3868 30.7574 10.919C31.2513 10.4511 31.5022 9.90532 31.5022 9.27375C31.0318 8.90728 30.3811 8.72014 29.5423 8.72014C28.9308 8.72014 28.4213 8.86829 28.0136 9.15679C27.5981 9.46088 27.3943 9.82735 27.3943 10.2562Z" fill="#3C4043"/>
<path d="M41.1211 4.72803L36.1039 16.2056H34.5517L36.4175 12.19L33.1092 4.72803H34.7477L37.1308 10.4512H37.1622L39.4827 4.72803H41.1211Z" fill="#3C4043"/>
<path d="M13.2701 7.03595C13.2701 6.54784 13.2262 6.08079 13.1446 5.63166H6.83551V8.20475L10.4691 8.20553C10.3217 9.06167 9.8474 9.79149 9.12069 10.278V11.9474H11.2836C12.5465 10.7849 13.2701 9.06635 13.2701 7.03595Z" fill="#4285F4"/>
<path d="M9.12069 10.278C8.51863 10.6819 7.74415 10.9183 6.83713 10.9183C5.08503 10.9183 3.59868 9.744 3.06639 8.16117H0.835297V9.8828C1.94065 12.0645 4.21251 13.5615 6.83713 13.5615C8.65117 13.5615 10.1743 12.9689 11.2836 11.9474L9.12069 10.278Z" fill="#34A853"/>
<path d="M2.85626 6.88388C2.85626 6.43944 2.93073 6.00981 3.06635 5.60592V3.88429H0.835261C0.378225 4.78643 0.121094 5.80475 0.121094 6.88388C0.121094 7.96302 0.379044 8.98066 0.835297 9.8828L3.06639 8.16117C2.93077 7.75727 2.85626 7.32833 2.85626 6.88388Z" fill="#FABB05"/>
<path d="M6.83713 2.84883C7.82725 2.84883 8.71389 3.18801 9.41394 3.85077L11.3307 1.94591C10.1665 0.867551 8.64882 0.205566 6.83713 0.205566C4.21329 0.205566 1.94062 1.70262 0.835261 3.88429L3.06635 5.60592C3.59865 4.02308 5.08503 2.84883 6.83713 2.84883Z" fill="#E94235"/>
</svg>
