<svg width="31" height="19" viewBox="0 0 31 19" fill="none" xmlns="http://www.w3.org/2000/svg">
<path fill-rule="evenodd" clip-rule="evenodd" d="M21.8707 18.1574C26.9135 18.1574 31.0015 14.1495 31.0015 9.20563C31.0015 4.26173 26.9135 0.253906 21.8707 0.253906C19.6107 0.253906 17.5424 1.05891 15.948 2.39239C14.3536 1.05894 12.2853 0.253964 10.0253 0.253964C4.98253 0.253964 0.894531 4.26179 0.894531 9.20569C0.894531 14.1496 4.98253 18.1574 10.0253 18.1574C12.2854 18.1574 14.3536 17.3524 15.9481 16.0189C17.5425 17.3524 19.6107 18.1574 21.8707 18.1574Z" fill="#ED0006"/>
<path fill-rule="evenodd" clip-rule="evenodd" d="M15.9492 16.0188C17.9124 14.3769 19.1572 11.9338 19.1572 9.20563C19.1572 6.47749 17.9124 4.03438 15.9492 2.39247C17.5437 1.05894 19.612 0.253906 21.872 0.253906C26.9148 0.253906 31.0028 4.26173 31.0028 9.20563C31.0028 14.1495 26.9148 18.1574 21.872 18.1574C19.612 18.1574 17.5437 17.3523 15.9492 16.0188Z" fill="#F9A000"/>
<path fill-rule="evenodd" clip-rule="evenodd" d="M15.9463 16.0184C17.9094 14.3765 19.1542 11.9334 19.1542 9.20525C19.1542 6.4771 17.9094 4.034 15.9463 2.39209C13.9831 4.034 12.7383 6.4771 12.7383 9.20525C12.7383 11.9334 13.9831 14.3765 15.9463 16.0184Z" fill="#FF5E00"/>
</svg>
