<svg width="19" height="21" viewBox="0 0 19 21" fill="none" xmlns="http://www.w3.org/2000/svg">
<path d="M5.84451 19.5266L6.21263 17.3251L5.39272 17.3072H1.4775L4.1984 1.06151C4.20671 1.01246 4.23426 0.966731 4.27437 0.934261C4.31449 0.901791 4.36595 0.883897 4.41943 0.883897H11.0211C13.2128 0.883897 14.7252 1.31335 15.5149 2.16098C15.8851 2.55863 16.1209 2.97416 16.235 3.43144C16.3545 3.91128 16.3567 4.48454 16.2398 5.18373L16.2313 5.23476V5.68276L16.6017 5.88027C16.9135 6.036 17.1611 6.21428 17.3511 6.4184C17.668 6.75838 17.8728 7.19049 17.9593 7.70278C18.0486 8.22966 18.0191 8.8566 17.8728 9.5664C17.7038 10.3829 17.4307 11.094 17.062 11.6759C16.7226 12.212 16.2905 12.6566 15.7775 13.0014C15.2876 13.3287 14.7056 13.5773 14.0475 13.7364C13.4097 13.8927 12.6828 13.9717 11.8854 13.9717H11.3716C11.0043 13.9717 10.6473 14.0962 10.3673 14.3196C10.0865 14.5476 9.90053 14.8589 9.8436 15.1997L9.80491 15.3979L9.15457 19.2781L9.12499 19.4206C9.11729 19.4658 9.10392 19.4883 9.08427 19.5035C9.06664 19.5173 9.04131 19.5266 9.01659 19.5266H5.84451Z" fill="#253B80"/>
<path d="M16.9509 5.28737C16.9313 5.40599 16.9088 5.52727 16.8835 5.65186C16.0127 9.86091 13.0343 11.315 9.23012 11.315H7.29327C6.82811 11.315 6.43608 11.633 6.36355 12.0652L5.09103 19.6661C5.04382 19.9497 5.2762 20.2056 5.5801 20.2056H9.01556C9.42238 20.2056 9.76781 19.9272 9.83183 19.5495L9.86567 19.385L10.5126 15.5199L10.5541 15.308C10.6173 14.9289 10.9635 14.6506 11.3704 14.6506H11.8842C15.2124 14.6506 17.8181 13.3781 18.5796 9.69588C18.8977 8.15767 18.733 6.8733 17.8912 5.96998C17.6365 5.69759 17.3205 5.4716 16.9509 5.28737Z" fill="#179BD7"/>
<path d="M16.0384 4.94435C15.9055 4.90789 15.7681 4.87475 15.6273 4.84493C15.4859 4.81578 15.3409 4.78993 15.1917 4.7674C14.6694 4.68787 14.0973 4.65009 13.4842 4.65009H8.30988C8.18245 4.65009 8.0615 4.67726 7.95311 4.72631C7.71444 4.83433 7.53717 5.04708 7.49422 5.30752L6.3933 11.8726L6.3617 12.0641C6.43423 11.632 6.82625 11.3139 7.29142 11.3139H9.22826C13.0325 11.3139 16.0111 9.8592 16.8816 5.65082C16.9076 5.52623 16.9294 5.40495 16.9491 5.28633C16.7289 5.17631 16.4902 5.0822 16.2333 5.002C16.1701 4.98212 16.1047 4.96291 16.0384 4.94435Z" fill="#222D65"/>
<path d="M7.49682 5.30797C7.53977 5.0475 7.71724 4.83477 7.9557 4.7274C8.0649 4.67836 8.18524 4.65119 8.31248 4.65119H13.487C14.1001 4.65119 14.6722 4.68896 15.1943 4.7685C15.3437 4.79103 15.4887 4.81688 15.6301 4.84603C15.7709 4.87586 15.9081 4.909 16.0412 4.94544C16.1072 4.964 16.1727 4.98321 16.2367 5.00244C16.4936 5.08263 16.7323 5.1774 16.9525 5.28676C17.2116 3.73131 16.9505 2.67226 16.0574 1.71328C15.0728 0.65755 13.2956 0.205566 11.0216 0.205566H4.41975C3.95519 0.205566 3.55911 0.523664 3.48719 0.956436L0.737524 17.3691C0.683228 17.6938 0.94924 17.9868 1.2969 17.9868H5.37277L7.49682 5.30797Z" fill="#253B80"/>
</svg>
