<svg width="40" height="17" viewBox="0 0 40 17" fill="none" xmlns="http://www.w3.org/2000/svg">
<path fill-rule="evenodd" clip-rule="evenodd" d="M21.9333 2.2452L19.1861 2.83478V0.607472L21.9333 0.0288086V2.2452ZM10.769 1.29546L8.09839 1.86315L8.08745 10.6076C8.08745 12.2233 9.30234 13.4133 10.9222 13.4133C11.8197 13.4133 12.4764 13.2495 12.8376 13.053V10.8369C12.4873 10.9788 10.758 11.481 10.758 9.86525V5.98974H12.8376V3.66444H10.758L10.769 1.29546ZM4.30096 5.84754C3.72088 5.84754 3.37064 6.01129 3.37064 6.43705C3.37064 6.90191 3.97341 7.1064 4.72121 7.36009C5.9403 7.77367 7.54484 8.31801 7.55162 10.3344C7.55162 12.2885 5.98649 13.413 3.70993 13.413C2.76867 13.413 1.73984 13.2274 0.721957 12.7907V10.1925C1.64134 10.6947 2.8015 11.0658 3.70993 11.0658C4.32285 11.0658 4.76065 10.9021 4.76065 10.3999C4.76065 9.88498 4.10724 9.64962 3.3184 9.36547C2.11704 8.93274 0.601562 8.38686 0.601562 6.56805C0.601562 4.63576 2.07913 3.47856 4.30096 3.47856C5.2094 3.47856 6.10688 3.62048 7.01532 3.98074V6.54622C6.1835 6.09863 5.13278 5.84754 4.30096 5.84754ZM16.2428 4.47241L16.0677 3.66456H13.7036V13.2169H16.4398V6.74313C17.0856 5.90253 18.1801 6.05537 18.5194 6.17545V3.66456C18.1691 3.53356 16.8886 3.29338 16.2428 4.47241ZM19.1861 3.66404H21.9333V13.2163H19.1861V3.66404ZM40.002 8.47851C40.002 5.68378 38.6449 3.47856 36.0509 3.47856C33.446 3.47856 31.8699 5.68378 31.8699 8.45668C31.8699 11.7427 33.7306 13.402 36.4011 13.402C37.7036 13.402 38.6886 13.1073 39.4329 12.6924V10.5091C38.6886 10.8802 37.8349 11.1095 36.7514 11.1095C35.6897 11.1095 34.7485 10.7383 34.6281 9.45012H39.9801C39.9801 9.38995 39.9841 9.25326 39.9886 9.09578C39.9948 8.8818 40.002 8.62944 40.002 8.47851ZM34.5958 7.44219C34.5958 6.20844 35.3511 5.69529 36.0406 5.69529C36.7082 5.69529 37.4197 6.20844 37.4197 7.44219H34.5958ZM25.5 4.33008C25.883 3.98074 26.5726 3.47856 27.6452 3.47856C29.5605 3.47856 31.3665 5.20344 31.3774 8.36935C31.3774 11.83 29.5934 13.4021 27.6342 13.4021C26.6711 13.4021 26.091 12.9981 25.697 12.7143L25.686 15.8038L22.9498 16.3824V3.65323H25.3577L25.5 4.33008ZM25.6968 10.4877C25.9594 10.7716 26.3425 11.0009 26.9883 11.0009C27.9952 11.0009 28.6738 9.90905 28.6738 8.44601C28.6738 7.01573 27.9842 5.90208 26.9883 5.90208C26.3644 5.90208 25.9704 6.12044 25.6858 6.43707L25.6968 10.4877Z" fill="#6461FC"/>
</svg>
