<svg width="39" height="13" viewBox="0 0 39 13" fill="none" xmlns="http://www.w3.org/2000/svg">
<path d="M19.6515 0.417891L17.1123 12.0241H14.0418L16.5814 0.417891H19.6515ZM32.57 7.91206L34.1865 3.55353L35.1167 7.91206H32.57ZM35.9958 12.0241H38.8359L36.3576 0.417891H33.7361C33.147 0.417891 32.65 0.752908 32.4287 1.26939L27.8221 12.0241H31.0466L31.6868 10.291H35.6261L35.9958 12.0241ZM27.9822 8.23459C27.9953 5.17131 23.6498 5.0027 23.6799 3.63435C23.6889 3.21741 24.095 2.77513 24.982 2.66162C25.4227 2.60542 26.6342 2.56244 28.01 3.18141L28.5487 0.720215C27.8097 0.457932 26.8589 0.205566 25.6763 0.205566C22.6415 0.205566 20.5054 1.78331 20.4874 4.04247C20.4682 5.71314 22.0122 6.64546 23.1757 7.20088C24.3719 7.7699 24.7739 8.1343 24.7686 8.64307C24.7607 9.42221 23.8144 9.76531 22.9315 9.7789C21.3875 9.80277 20.4915 9.37151 19.7773 9.04605L19.2209 11.5892C19.9381 11.9113 21.2624 12.1912 22.6363 12.2056C25.8615 12.2056 27.9717 10.6473 27.9822 8.23459ZM15.2639 0.417891L10.2892 12.0241H7.04292L4.59499 2.76154C4.44622 2.19106 4.31699 1.98241 3.86504 1.7418C3.12758 1.35058 1.9085 0.982865 0.835938 0.755112L0.909195 0.417891H6.13377C6.79948 0.417891 7.39868 0.851356 7.54971 1.6011L8.8428 8.31761L12.038 0.417891H15.2639Z" fill="#1434CB"/>
</svg>
